<svg width="138" height="131" viewBox="0 0 138 131" fill="none" xmlns="http://www.w3.org/2000/svg">
<path d="M36.8164 4.37267L107.58 18.8988C108.397 19.0663 109.144 19.4746 109.726 20.0709C110.308 20.6676 110.698 21.425 110.846 22.2455C112.817 33.0321 113.917 77.9724 117.232 96.5045C117.776 99.5786 123.067 110.829 123.067 110.829C123.233 111.164 123.263 111.55 123.151 111.907C123.038 112.263 122.792 112.562 122.464 112.741C122.247 112.86 122.002 112.92 121.755 112.916L109.192 112.202C108.31 112.183 107.434 112.346 106.618 112.681C105.803 113.016 105.065 113.515 104.451 114.148L94.7557 124.117C93.952 124.734 93.0148 125.154 92.0194 125.344C91.024 125.533 89.9981 125.486 89.024 125.207L17.024 104.016C16.6612 103.912 16.3245 103.732 16.0363 103.489C15.7481 103.245 15.5149 102.943 15.3522 102.602C15.1891 102.262 15.1 101.891 15.0908 101.513C15.0815 101.136 15.1524 100.761 15.2986 100.412L21.3242 85.9957C22.7397 82.5945 21.5257 78.3159 22.1683 59.217C22.9409 36.2479 34.3938 6.04635 34.3938 6.04635C34.4344 5.77311 34.5306 5.51111 34.6765 5.27658C34.8225 5.04205 35.015 4.83998 35.2422 4.68289C35.4693 4.52601 35.7262 4.41752 35.9971 4.36415C36.2679 4.31079 36.5467 4.31369 36.8164 4.37267Z" fill="#B5865C" stroke="black" stroke-width="1.40135" stroke-miterlimit="10"/>
<path d="M122.207 112.348C122.072 112.503 121.905 112.628 121.717 112.712C121.529 112.797 121.325 112.84 121.119 112.838L109.198 112.206C108.316 112.187 107.44 112.35 106.624 112.685C105.809 113.02 105.071 113.519 104.456 114.152L94.7563 124.121C94.0487 124.666 93.5423 124.05 92.7096 124.263L104.277 104.21V104.014L122.207 112.348Z" fill="#421E0B" stroke="black" stroke-width="1.40135" stroke-miterlimit="10"/>
<path d="M117.046 95.3714C117.127 98.7073 123.034 110.829 123.034 110.829C123.317 111.374 122.854 111.92 122.489 112.345L104.265 104.022L108.559 23.2817L109.104 19.5752C109.56 19.8862 109.95 20.2848 110.251 20.748C110.552 21.2112 110.758 21.7297 110.857 22.2732C112.811 33.0327 116.54 74.7081 117.046 95.3714Z" fill="#5B2A0E" stroke="black" stroke-width="1.40135" stroke-miterlimit="10"/>
<path d="M31.5092 88.3916L81.398 101.588" stroke="#5B2A0E" stroke-width="1.40135" stroke-miterlimit="10" stroke-linecap="round"/>
<path d="M108.555 23.2847L104.287 104.046V104.243L92.453 124.666L92.0337 124.753C91.7451 119.057 94.1784 109.748 95.2508 105.764C95.4988 104.807 95.6016 103.818 95.5558 102.831C95.4849 101.059 95.9094 98.4379 96.6115 98.0618C97.5369 97.5547 98.2938 96.0887 98.4459 95.0422L108.555 23.2847Z" fill="#825C43" stroke="black" stroke-width="1.40135" stroke-miterlimit="10"/>
<g style="mix-blend-mode:multiply">
<path d="M37.1223 5.98594L104.754 19.0636C105.411 19.1907 106.037 19.4462 106.595 19.8153C107.153 20.1844 107.634 20.6599 108.008 21.2147C108.765 22.3359 109.047 23.7118 108.79 25.0402L107.436 32.0617C106.99 34.3773 105.643 36.4209 103.69 37.7435C102.724 38.3979 101.639 38.8553 100.496 39.0896C99.3527 39.3239 98.1748 39.3306 97.0292 39.1091L36.838 27.4698C35.6921 27.2481 34.6012 26.8027 33.6275 26.1592C32.6539 25.5156 31.8166 24.6865 31.1636 23.7192C29.8433 21.7643 29.3527 19.3654 29.7995 17.0492L31.1528 10.0332C31.4078 8.70406 32.1801 7.53055 33.2999 6.77056C33.8542 6.39487 34.4771 6.13219 35.133 5.99755C35.7889 5.86291 36.4649 5.85897 37.1223 5.98594Z" fill="#CC966A"/>
</g>
<path d="M36.9112 1.37661L107.461 15.0189C108.131 15.1486 108.77 15.4093 109.339 15.7859C109.909 16.1625 110.399 16.6477 110.781 17.2138C111.553 18.3578 111.841 19.7615 111.579 21.1169L110.278 27.8652C109.823 30.2261 108.449 32.3099 106.458 33.6585C104.468 35.0062 102.026 35.5068 99.6667 35.0509L36.7011 22.8753C35.5329 22.6491 34.4206 22.195 33.428 21.5388C32.4353 20.8827 31.5816 20.0373 30.9158 19.0511C29.5699 17.0578 29.0697 14.612 29.5253 12.2504L30.8308 5.48023C31.0966 4.13106 31.8855 2.94187 33.0251 2.17232C34.1641 1.40328 35.5616 1.11714 36.9112 1.37661Z" fill="#CC966A" stroke="black" stroke-width="1.40135" stroke-miterlimit="10"/>
<path d="M65.8375 41.1346C71.0304 41.1346 75.24 36.9247 75.24 31.7321C75.24 26.5392 71.0304 22.3296 65.8375 22.3296C60.6446 22.3296 56.435 26.5392 56.435 31.7321C56.435 36.9247 60.6446 41.1346 65.8375 41.1346Z" fill="#0C513F" stroke="black" stroke-width="1.40135" stroke-miterlimit="10"/>
</svg>
