<svg width="20" height="20" viewBox="0 0 20 20" fill="none" xmlns="http://www.w3.org/2000/svg">
<path d="M11.3145 1.26902L11.7777 2.57062C11.8468 2.76459 11.9557 2.94191 12.0976 3.09115C12.2394 3.24038 12.411 3.35819 12.6012 3.43698C12.7914 3.51577 12.9961 3.55377 13.2019 3.54854C13.4077 3.54331 13.6102 3.49496 13.7961 3.40662L15.0441 2.81382C16.2945 2.21942 17.5993 3.52422 17.0049 4.77462L16.4121 6.02262C16.3235 6.20855 16.275 6.41102 16.2696 6.61692C16.2643 6.82281 16.3022 7.02754 16.381 7.21782C16.4598 7.40811 16.5778 7.57972 16.7271 7.72153C16.8765 7.86334 17.054 7.97219 17.2481 8.04102L18.5497 8.50342C19.8537 8.96742 19.8537 10.8122 18.5497 11.277L17.2481 11.7402C17.0542 11.8093 16.8768 11.9182 16.7276 12.0601C16.5784 12.2019 16.4605 12.3735 16.3818 12.5637C16.303 12.7539 16.265 12.9586 16.2702 13.1644C16.2754 13.3702 16.3238 13.5726 16.4121 13.7586L17.0049 15.0066C17.5993 16.257 16.2945 17.5618 15.0441 16.9674L13.7961 16.3746C13.6102 16.2861 13.4078 16.2376 13.202 16.2323C12.9962 16.2269 12.7915 16.2649 12.6013 16.3436C12.411 16.4223 12.2394 16.5401 12.0976 16.6893C11.9557 16.8385 11.8467 17.0158 11.7777 17.2098L11.3145 18.5122C10.8505 19.8162 9.00572 19.8162 8.54172 18.5122L8.07852 17.2098C8.0094 17.0159 7.90038 16.8387 7.75849 16.6895C7.61661 16.5404 7.44502 16.4227 7.25481 16.3439C7.0646 16.2652 6.86 16.2273 6.65421 16.2326C6.44843 16.2379 6.24604 16.2863 6.06012 16.3746L4.81212 16.9666C3.56172 17.5618 2.25692 16.257 2.85132 15.0066L3.44412 13.7586C3.53274 13.5726 3.5813 13.37 3.58667 13.164C3.59204 12.958 3.5541 12.7531 3.47529 12.5627C3.39649 12.3723 3.27858 12.2006 3.1292 12.0586C2.97982 11.9166 2.8023 11.8076 2.60812 11.7386L1.30652 11.2762C0.00252166 10.8122 0.00252166 8.96662 1.30652 8.50262L2.60812 8.04022C2.8023 7.97143 2.97988 7.86264 3.12937 7.7209C3.27887 7.57916 3.39694 7.40762 3.47597 7.21737C3.55499 7.02713 3.5932 6.82241 3.58813 6.61647C3.58306 6.41053 3.53482 6.20794 3.44652 6.02182L2.85292 4.77382C2.25852 3.52262 3.56332 2.21782 4.81452 2.81222L6.06252 3.40582C6.2484 3.49404 6.45072 3.54232 6.65641 3.54754C6.86211 3.55275 7.06661 3.51478 7.25672 3.43608C7.44683 3.35738 7.61834 3.2397 7.76016 3.09063C7.90199 2.94156 8.01099 2.76441 8.08012 2.57062L8.54252 1.26902C9.00492 -0.0349844 10.8497 -0.0349844 11.3137 1.26902H11.3145Z" fill="#FFB3CE"/>
</svg>
