<svg width="128" height="129" viewBox="0 0 128 129" fill="none" xmlns="http://www.w3.org/2000/svg">
<g clip-path="url(#clip0_205_1436)">
<path d="M64 124.391C97.137 124.391 124 97.5276 124 64.3906C124 31.2536 97.137 4.39062 64 4.39062C30.863 4.39062 4 31.2536 4 64.3906C4 97.5276 30.863 124.391 64 124.391Z" fill="#0C513F" stroke="white" stroke-width="7.09" stroke-miterlimit="10"/>
<path d="M23.383 55.1736C23.033 56.7126 21.783 57.7496 19.759 57.2856C17.729 56.8216 17.041 55.3486 17.413 53.8156C17.778 52.2816 19.011 51.2396 21.036 51.7026C23.06 52.1666 23.732 53.6406 23.382 55.1736H23.383ZM18.116 53.9736C17.855 55.0486 18.351 56.0416 19.961 56.4066C21.576 56.7776 22.433 56.0906 22.679 55.0156C22.924 53.9356 22.444 52.9466 20.834 52.5816C19.214 52.2106 18.368 52.9086 18.116 53.9726V53.9736ZM23.121 39.8066L23.58 38.9886L27.76 43.8186L27.345 44.5596L21.042 43.5226L21.5 42.7046L26.483 43.5886L23.121 39.8126V39.8066ZM32.141 29.9736L29.953 32.1626L31.263 33.4726L33.118 31.6166L33.658 32.1566L31.803 34.0116L33.118 35.3276L35.306 33.1386L35.846 33.6786L33.058 36.4676L28.813 32.2226L31.601 29.4336L32.141 29.9736ZM45.173 27.2506L44.338 27.7256L42.374 26.5086C42.319 26.5516 42.259 26.5846 42.199 26.6176L41.048 27.2776L42.052 29.0346L41.315 29.4546L38.33 24.2446L40.224 23.1636C41.414 22.4806 42.483 22.6886 43.116 23.7966C43.574 24.5986 43.514 25.3566 42.996 25.9686L45.168 27.2446L45.173 27.2506ZM39.421 24.4346L40.698 26.6666L41.85 26.0066C42.625 25.5646 42.75 24.8666 42.38 24.2216C42.008 23.5716 41.348 23.3316 40.573 23.7746L39.422 24.4346H39.421ZM55.82 23.6376L54.87 22.1806L52.595 22.7256L52.409 24.4556L51.498 24.6736L52.3 18.3056L53.124 18.1096L56.726 23.4196L55.815 23.6376H55.82ZM52.682 21.9616L54.45 21.5366L52.977 19.2766L52.682 21.9566V21.9616ZM64.496 22.1646L67.334 22.2686L67.306 23.0046L63.623 22.8686L63.847 16.8706L64.693 16.9036L64.496 22.1636V22.1646ZM75.104 23.6766L77.822 24.4896L77.609 25.1996L74.079 24.1396L75.803 18.3886L76.616 18.6346L75.104 23.6766ZM95.192 34.4306C94.318 35.3626 93.352 35.1826 92.354 34.2446L90.689 32.6836L94.804 28.3126L96.277 29.6986C97.254 30.6156 97.429 31.4286 96.67 32.2366C96.245 32.6836 95.84 32.8096 95.393 32.6666C95.775 33.2506 95.792 33.7966 95.192 34.4356V34.4296V34.4306ZM92.834 33.7306C93.484 34.3426 94.062 34.3916 94.574 33.8456C95.088 33.3006 94.941 32.7926 94.291 32.1816L93.249 31.1996L91.792 32.7496L92.834 33.7316V33.7306ZM94.94 29.4036L93.707 30.7136L94.564 31.5156C95.154 32.0666 95.666 32.1866 96.119 31.7066C96.572 31.2266 96.387 30.7566 95.803 30.2066L94.946 29.4036H94.941H94.94ZM104.813 41.7786L103.197 39.1376L101.615 40.1036L102.985 42.3406L102.335 42.7386L100.966 40.5016L99.378 41.4726L100.993 44.1146L100.343 44.5126L98.286 41.1456L103.405 38.0076L105.462 41.3746L104.813 41.7726V41.7786ZM105.014 51.0756C104.277 51.3596 104.228 52.1346 104.403 52.7356C104.583 53.3626 105.03 53.9846 105.876 53.7386C107.524 53.2636 105.014 50.3556 107.366 49.6786C108.381 49.3846 109.271 50.0226 109.593 51.2126C109.865 52.2226 109.571 53.1436 108.752 53.5256L108.392 52.8006C109.003 52.5436 109.107 51.9326 108.954 51.3976C108.79 50.8306 108.365 50.2846 107.606 50.5026C106.133 50.9286 108.632 53.8426 106.116 54.5626C105.358 54.7816 104.206 54.6556 103.71 52.9366C103.241 51.3046 103.95 50.6066 104.654 50.3286L105.014 51.0816V51.0756ZM110.646 66.4386L110.614 64.5066L105.375 64.5946L105.358 63.7426L110.597 63.6606L110.564 61.7236L111.328 61.7136L111.405 66.4276L110.641 66.4386H110.646ZM107.295 83.7486L106.946 84.5226L101.483 82.0346L101.833 81.2596L107.295 83.7486ZM100.36 94.9226L99.836 95.5936L95.105 91.8936L95.628 91.2236L101.222 91.7306L97.506 88.8216L98.029 88.1506L102.761 91.8506L102.237 92.5206L96.627 91.9976L100.365 94.9226H100.36ZM79.787 106.133C78.947 104.272 79.809 102.831 81.337 102.144L83.187 101.309L85.653 106.777L83.803 107.612C82.281 108.299 80.627 107.994 79.787 106.133ZM81.626 102.793C80.54 103.284 79.923 104.294 80.589 105.773C81.26 107.257 82.428 107.454 83.509 106.968L84.589 106.482L82.706 102.308L81.626 102.793ZM68.78 111.021L71.842 110.562L71.569 108.729L68.972 109.116L68.857 108.363L71.455 107.976L71.182 106.137L68.121 106.595L68.006 105.842L71.908 105.258L72.792 111.195L68.89 111.779L68.775 111.026L68.781 111.021H68.78ZM60.148 106.584L57.326 106.279L57.408 105.547L61.075 105.946L60.425 111.91L59.58 111.817L60.148 106.584ZM48.748 109.559L47.945 109.281L49.899 103.606L50.701 103.884L48.748 109.559ZM36.71 103.551L35.924 103.043L40.999 99.1736L41.714 99.6326L40.289 105.854L39.504 105.346L40.694 100.429L36.715 103.551H36.71ZM27.448 93.9466L29.5 96.2666L30.886 95.0386L29.146 93.0736L29.718 92.5666L31.458 94.5306L32.85 93.2976L30.799 90.9776L31.372 90.4706L33.986 93.4226L29.489 97.4006L26.875 94.4486L27.448 93.9416V93.9466ZM25.538 80.7556L25.963 81.6186L24.626 83.5006C24.664 83.5606 24.697 83.6206 24.724 83.6806L25.314 84.8756L27.131 83.9806L27.508 84.7446L22.122 87.3966L21.162 85.4436C20.555 84.2106 20.828 83.1566 21.974 82.5946C22.804 82.1856 23.557 82.2946 24.135 82.8516L25.543 80.7616L25.538 80.7556ZM22.368 86.3216L24.675 85.1866L24.086 83.9916C23.693 83.1896 23.006 83.0206 22.334 83.3536C21.664 83.6806 21.379 84.3306 21.772 85.1326L22.362 86.3276L22.367 86.3216H22.368ZM16.769 71.4366L16.589 70.4496L19.945 71.9556L22.859 71.4316L23.012 72.2776L20.098 72.8016L17.478 75.3986L17.298 74.4106L19.258 72.5176L16.764 71.4426L16.769 71.4366Z" fill="white"/>
<path d="M64 44.5444L70.45 57.6084L84.874 59.7044L74.434 69.8764L76.901 84.2394L64 77.4564L51.104 84.2394L53.566 69.8764L43.132 59.7044L57.555 57.6084L64 44.5444Z" fill="#FFC501"/>
</g>
<defs>
<clipPath id="clip0_205_1436">
<rect width="128" height="128" fill="white" transform="translate(0 0.390625)"/>
</clipPath>
</defs>
</svg>
