<svg width="77" height="64" viewBox="0 0 77 64" fill="none" xmlns="http://www.w3.org/2000/svg">
<path d="M25.5586 27.4891L33.1375 27.3203L33.6652 29.9366L23.539 30.5555L25.5586 27.4891Z" fill="#1E1E1E"/>
<path d="M27.5501 28.5019L20.8016 40.7675L19.0001 39.8461L25.9808 27.5103L27.5501 28.5019Z" fill="#444444"/>
<path d="M55.8881 41.8437L44.6641 36.4775L30.8012 37.6872L29.1193 40.1699L30.2382 50.6701C30.2382 50.6701 33.5386 54.2781 36.656 55.4737C40.5263 56.9576 53.1718 56.5919 53.1718 56.5919L55.9021 41.8437H55.8881Z" fill="#0C0000"/>
<path d="M63.9102 63.6952C57.4995 63.6952 52.2992 58.4978 52.2992 52.0908C52.2992 45.6837 57.4995 40.4863 63.9102 40.4863C70.321 40.4863 75.5143 45.6837 75.5143 52.0908C75.5143 58.4978 70.321 63.6952 63.9102 63.6952Z" fill="#303030"/>
<path d="M63.9102 60.1716C59.4488 60.1716 55.8247 56.5496 55.8247 52.0907C55.8247 47.6247 59.4488 44.0098 63.9102 44.0098C68.3787 44.0098 71.9957 47.6247 71.9957 52.0907C71.9957 56.5496 68.3787 60.1716 63.9102 60.1716Z" fill="#0C0000"/>
<path d="M63.912 61.4287C58.7557 61.4287 54.5757 57.2458 54.5757 52.0924C54.5757 46.9389 58.7557 42.7666 63.912 42.7666C69.0684 42.7666 73.2484 46.9389 73.2484 52.0924C73.2484 57.2458 69.0684 61.4287 63.912 61.4287Z" stroke="#3D3D3D" stroke-width="1.07635" stroke-miterlimit="10"/>
<path d="M24.0808 23.3257L26.0793 25.9279L20.5131 27.3486L24.0808 23.3257Z" fill="#1E1E1E"/>
<path d="M48.2318 28.9097L44.8752 30.1334L45.3678 31.7158L48.9215 29.9506L48.2318 28.9097Z" fill="#00160F"/>
<path d="M49.9136 13.1348C49.9136 13.1348 48.8792 14.9422 47.4296 16.1097C45.9729 17.2772 35.0867 21.3001 35.0867 21.3001C35.0867 21.3001 36.67 21.5673 36.7544 22.4324L48.5062 18.2829L51.5392 14.1686L49.9136 13.1348Z" fill="#FFB2CE"/>
<path d="M32.9686 39.9306C32.5393 40.2471 32.4197 40.8378 32.6941 41.2809C33.4963 42.5891 34.7278 44.9311 35.1149 47.5755C35.72 51.6546 35.8748 51.0427 35.8748 51.0427L38.6967 48.2366C38.6967 48.2366 38.0071 41.8506 39.2104 39.3539C39.2104 39.3539 38.2322 36.9556 35.5582 38.1583C33.8341 38.9389 33.433 39.6 32.9686 39.9447V39.9306Z" fill="#333333"/>
<path d="M57.2955 56.9925C57.2955 56.9925 54.8255 57.6817 52.0177 57.8154C48.2037 57.9842 35.8185 57.9982 31.6597 53.1806C27.8878 48.8272 29.7597 45.8804 29.7597 45.8804L30.7801 46.4641C30.7801 46.4641 29.0982 51.7318 35.3823 54.2918C41.6663 56.8519 53.5236 55.1639 53.5236 55.1639L57.2955 57.0066V56.9925Z" fill="#1C1C1C"/>
<path d="M30.8645 39.5086C30.8645 39.5086 31.35 44.7482 32.8348 47.1465C34.3196 49.5447 36.4307 50.6419 36.4307 50.6419L37.0359 52.8221C37.0359 52.8221 36.3322 54.3483 35.3963 54.1302C34.4604 53.9193 32.1734 52.2735 31.0826 48.7852C29.9919 45.2898 28.9504 46.0493 28.4015 42.3429C27.8526 38.6365 28.1341 39.3398 28.1341 39.3398L30.8645 39.4946V39.5086Z" fill="#333333"/>
<path d="M75.6902 33.1718L76.7317 43.1938C76.7457 43.3978 76.6965 43.5806 76.5698 43.7424C76.2391 44.1855 75.5635 44.1644 75.275 43.6861L70.8769 36.7094L75.7113 33.1577L75.6902 33.1718Z" fill="#444444"/>
<path d="M71.7283 31.1183C71.7283 31.1183 74.9654 30.6119 75.9857 31.0691C76.3446 31.2308 76.4502 31.7091 76.4783 32.1803C76.4924 32.8273 76.1828 33.4462 75.6691 33.819C74.142 34.9232 70.5813 37.4691 69.0261 38.0318C66.8939 38.8124 58.8506 38.9109 58.8506 38.9109L58.6677 37.5254L71.7283 31.1183Z" fill="#333333"/>
<path d="M12.9272 63.6949C6.19277 63.6949 0.732056 58.2303 0.732056 51.4997C0.732056 44.7691 6.19277 39.3115 12.9272 39.3115C19.6616 39.3115 25.1293 44.7691 25.1293 51.4997C25.1293 58.2303 19.6616 63.6949 12.9272 63.6949Z" fill="#303030"/>
<path d="M12.9342 59.9956C8.24051 59.9956 4.42645 56.1978 4.42645 51.4998C4.42645 46.8088 8.24051 43.0039 12.9342 43.0039C17.6279 43.0039 21.4349 46.8088 21.4349 51.4998C21.4349 56.1978 17.6279 59.9956 12.9342 59.9956Z" fill="#0C0000"/>
<path d="M12.9289 61.3073C7.50867 61.3073 3.12286 56.9187 3.12286 51.5016C3.12286 46.0844 7.50867 41.6958 12.9289 41.6958C18.3492 41.6958 22.7403 46.0844 22.7403 51.5016C22.7403 56.9187 18.3492 61.3073 12.9289 61.3073Z" stroke="#3D3D3D" stroke-width="1.07635" stroke-miterlimit="10"/>
<path d="M47.5633 31.4487C47.5633 31.4487 43.0385 28.2698 41.4552 27.5806C39.0063 26.5045 35.1219 26.7577 33.1515 27.3203C31.6315 27.7494 26.4031 30.2109 26.4031 30.2109L23.1871 36.2171C23.1871 36.2171 22.8212 37.4338 23.1097 37.8487C24.2779 39.5437 29.5838 40.6971 31.5964 40.4509C36.2267 39.8602 47.5633 31.4487 47.5633 31.4487Z" fill="#028C5B"/>
<path d="M13.2157 56.8379C10.5768 56.8379 8.43756 54.6999 8.43756 52.0625C8.43756 49.4251 10.5768 47.2871 13.2157 47.2871C15.8546 47.2871 17.9938 49.4251 17.9938 52.0625C17.9938 54.6999 15.8546 56.8379 13.2157 56.8379Z" fill="#A89B75"/>
<path d="M13.1876 55.199C11.3791 55.199 9.90833 53.7291 9.90833 51.9216C9.90833 50.1141 11.3791 48.6372 13.1876 48.6372C14.9961 48.6372 16.4668 50.1141 16.4668 51.9216C16.4668 53.7291 14.9961 55.199 13.1876 55.199Z" fill="#0C0000"/>
<path d="M64.3043 56.8379C61.6654 56.8379 59.5262 54.6999 59.5262 52.0625C59.5262 49.4251 61.6654 47.2871 64.3043 47.2871C66.9432 47.2871 69.0824 49.4251 69.0824 52.0625C69.0824 54.6999 66.9432 56.8379 64.3043 56.8379Z" fill="#A89B75"/>
<path d="M64.2691 55.199C62.4606 55.199 60.9899 53.7291 60.9899 51.9216C60.9899 50.1141 62.4606 48.6372 64.2691 48.6372C66.0776 48.6372 67.5484 50.1141 67.5484 51.9216C67.5484 53.7291 66.0776 55.199 64.2691 55.199Z" fill="#0C0000"/>
<path d="M20.3794 41.3022L14.1094 52.7097C13.849 53.188 13.2509 53.3708 12.7583 53.1247C12.2587 52.8645 12.0687 52.2315 12.3431 51.7321L18.796 40.3105L20.3653 41.3022H20.3794Z" fill="#444444"/>
<path d="M13.3212 52.4214C13.096 52.4214 12.9131 52.2456 12.9131 52.0205C12.9131 51.7955 13.096 51.6196 13.3212 51.6196C13.5464 51.6196 13.7223 51.7955 13.7223 52.0205C13.7223 52.2456 13.5464 52.4214 13.3212 52.4214Z" fill="#0C0000"/>
<path d="M26.009 52.2172C26.009 52.2172 26.6705 46.2883 24.3694 43.5244C22.0683 40.7604 18.8453 38.0457 14.7005 38.1019C10.5557 38.1582 6.15057 40.6619 6.15057 40.6619C6.15057 40.6619 6.15057 41.4215 9.275 41.0206C12.3994 40.6197 15.1579 41.1191 15.8194 43.0602L16.3824 44.9028L19.1409 43.7213C19.1409 43.7213 22.4201 43.9182 23.6446 46.5837C24.869 49.2422 24.5664 51.8022 26.009 52.2031V52.2172Z" fill="#1E1E1E"/>
<path d="M17.0087 33.9104C17.0087 33.9104 17.3676 34.0651 17.9587 34.1777C17.9446 33.819 17.832 31.5825 18.1205 30.415C18.4231 29.1913 22.8423 26.4273 23.2434 26.1812C20.7523 26.7157 17.5364 27.637 16.7413 28.9311C15.4183 31.1183 16.9946 33.9175 16.9946 33.9175L17.0087 33.9104Z" fill="#FFC400"/>
<path d="M33.2289 23.0797C33.2289 23.0797 30.4845 22.1302 29.633 22.4749C28.1975 23.0656 25.9949 27.5035 25.9949 27.5035L25.5375 27.0182C25.5375 27.0182 27.8667 21.3426 29.5063 21.2511C31.146 21.1667 33.5737 22.1724 33.5737 22.1724L33.2289 23.0656V23.0797Z" fill="#565656"/>
<path d="M17.9798 34.1635C19.2605 34.3955 21.646 34.4026 23.8345 32.0395C27.0293 28.5863 26.3397 25.6113 26.3397 25.6113C26.3397 25.6113 24.9816 25.8012 23.2857 26.1599C22.8705 26.4201 18.4653 29.1771 18.1627 30.4008C17.8742 31.5683 17.9798 33.8048 18.0079 34.1635H17.9798Z" fill="#333333"/>
<path d="M24.1934 21.5884L17.4942 28.2275L22.0683 26.3708C22.0683 26.3708 25.1997 24.5633 24.1934 21.5884Z" fill="#444444"/>
<path d="M58.0554 36.147L63.7836 50.3677L62.3762 50.9022L56.7536 36.5197L58.0554 36.147Z" fill="#444444"/>
<path d="M34.0945 16.0464C34.0945 16.0464 34.4674 15.3712 34.6222 14.1334C34.7208 13.3317 34.4674 12.6002 34.4674 12.6002C34.383 12.2978 34.01 12.1993 33.7778 12.4103C33.7778 12.4103 32.2649 13.1769 31.73 14.3796C31.526 14.8297 31.8778 15.8495 31.8778 15.8495C32.0678 16.2926 32.4971 16.595 32.9686 16.6231L33.3908 16.6512C33.7356 16.6512 34.0241 16.391 34.0945 16.0464Z" fill="#444444"/>
<path d="M32.9686 16.6234L31.73 16.3773L29.5275 21.2089L29.2882 20.8643L31.3712 16.2788L31.73 14.3799L32.9686 16.6234Z" fill="#444444"/>
<path d="M30.4775 15.0687L30.4353 18.5571C30.4353 18.5571 29.3445 18.965 28.7816 18.114C28.2186 17.263 29.6753 14.6186 30.4775 15.0687Z" fill="#444444"/>
<path d="M33.6652 21.2227C33.6652 21.2227 29.5275 20.1677 28.8238 20.7726C28.1201 21.3774 25.5727 25.7238 25.5727 25.7238L26.3186 25.6183C26.3186 25.6183 28.479 21.5814 29.429 21.4829C30.379 21.3844 33.2641 22.1862 33.2641 22.1862L33.6652 21.2368V21.2227Z" fill="#444444"/>
<path d="M59.4347 47.2728C59.681 46.9141 59.5051 46.4218 59.0899 46.3093C58.8155 46.2389 58.4706 46.2671 58.1399 46.5976C57.3236 47.4135 55.5784 50.1915 53.6081 50.2478C51.6377 50.304 50.9903 48.6091 49.9559 48.9396C48.9214 49.2702 44.5515 51.1831 44.5515 51.1831C44.5515 51.1831 44.9315 55.3256 47.1622 55.0513C49.3929 54.777 54.3751 53.8065 55.7403 52.3225C56.8099 51.1691 58.6747 48.4192 59.4347 47.2728Z" fill="#5E5E5E"/>
<path d="M44.9385 46.7172C44.9385 46.7172 46.7892 46.0561 47.6688 46.8298C48.5485 47.6104 50.0122 48.2996 50.561 48.0254C51.1099 47.7511 51.6518 49.1155 50.6173 49.446C49.5829 49.7766 46.0292 49.9383 46.0292 49.9383L44.9385 46.7172Z" fill="#444444"/>
<path d="M42.2363 52.3366C40.8641 52.3366 39.7452 51.2183 39.7452 49.8469C39.7452 48.4755 40.8641 47.3643 42.2363 47.3643C43.6085 47.3643 44.7274 48.4755 44.7274 49.8469C44.7274 51.2183 43.6085 52.3366 42.2363 52.3366Z" fill="#3D3D3D"/>
<path d="M35.8748 51.0429C35.8748 52.5972 37.1415 53.8631 38.6967 53.8631C39.8507 53.8631 40.857 53.1598 41.2863 52.1682C40.9133 52.8574 40.1744 53.3145 39.33 53.3145C38.0915 53.3145 37.0993 52.3088 37.0993 51.0851C37.0993 49.8684 38.1055 48.8556 39.33 48.8556C40.2378 48.8556 41.0259 49.4042 41.3707 50.1849C40.9978 49.0666 39.9492 48.2578 38.6967 48.2578C37.1415 48.2578 35.8748 49.5167 35.8748 51.0569V51.0429Z" fill="#333333"/>
<path d="M37.0852 51.0708C37.0852 52.3086 38.0915 53.3002 39.3159 53.3002C40.1674 53.3002 40.8992 52.829 41.2722 52.1539C41.4129 51.8092 41.4833 51.4295 41.4833 51.0426C41.4833 50.7402 41.4411 50.4378 41.3426 50.1635C40.9978 49.3758 40.2096 48.8413 39.3018 48.8413C38.0633 48.8413 37.0711 49.833 37.0711 51.0708H37.0852Z" fill="#444444"/>
<path d="M52.637 7.50821C52.637 7.50821 52.637 7.50821 52.6229 7.50821V7.56447C52.6229 7.56447 52.6229 7.53634 52.637 7.49414V7.50821Z" fill="#FCD363"/>
<path d="M52.2218 4.22403V4.26622C52.2218 4.26622 52.264 4.25919 52.2781 4.24513C52.2359 4.23106 52.2218 4.20996 52.2218 4.20996V4.22403Z" fill="#FCD363"/>
<path d="M54.0162 8.65479L54.5158 11.2711L50.0051 13.4443C50.0051 13.4443 49.5547 12.3682 48.1896 12.4526L54.0162 8.65479Z" fill="#683A28"/>
<path d="M55.0225 12.1082V10.786C55.0225 10.6594 54.917 10.5398 54.7762 10.5539C54.1288 10.6805 52.44 11.0462 51.3351 11.6791C49.9418 12.502 48.9918 13.3038 48.9918 13.3038L49.5407 14.5697L55.0085 12.0941L55.0225 12.1082Z" fill="#FFC1D8"/>
<path d="M75.0217 15.4133L70.8487 13.2964C70.3562 13.0502 69.8002 12.9377 69.2373 12.9799L57.4433 13.9293C57.1407 13.9575 56.9225 14.2458 56.9929 14.5482L57.6121 17.0942L75.0217 15.4133Z" fill="#FCD363"/>
<path d="M71.8691 45.9438L51.7855 55.361C51.4829 55.5017 51.3281 55.8322 51.3985 56.1487C51.4548 56.423 51.6729 56.6269 51.9473 56.6832C52.7988 56.859 54.6355 57.1826 55.4095 57.1826C60.5043 57.1826 74.1702 50.4098 74.1702 50.4098C74.7472 50.1847 75.1202 49.6361 75.1343 49.0172C75.1483 48.4546 75.092 47.7513 74.7613 47.1183C74.2898 46.1548 73.2976 45.8805 72.6924 45.8102C72.4039 45.768 72.1154 45.8172 71.855 45.9438H71.8691Z" fill="#5E5E5E"/>
<path d="M47.0074 46.1831C47.0074 46.1831 51.8137 50.2341 53.7981 50.0794C54.9662 49.9809 57.2251 46.4012 57.4433 42.6315C57.5981 39.9449 55.874 36.6675 55.874 36.6675L47.0074 46.1831Z" fill="#0C0000"/>
<path d="M55.6558 37.898C56.2751 37.8418 56.634 38.5873 56.2047 39.0514C54.4173 40.8941 51.1803 44.1152 49.5829 45.0365C48.851 45.4515 47.0918 46.3869 46.3318 46.0282C44.8188 45.3108 43.3129 40.029 43.3129 40.029L47.8448 38.5802L55.6699 37.898H55.6558Z" fill="#333333"/>
<path d="M52.6651 36.8218L51.3281 39.0372C51.3281 39.0372 47.7111 39.2974 46.6063 39.0372C45.5578 38.791 43.0104 37.1664 43.0104 37.1664L52.6651 36.8218Z" fill="#444444"/>
<path d="M72.0098 32.6515C73.8535 31.8779 71.6158 29.4233 71.6158 29.4233L59.4629 30.1407L48.9918 37.2229C48.9918 37.2229 49.7659 38.9671 50.3289 38.9953C52.5596 39.0937 57.591 38.1794 57.591 38.1794C57.591 38.1794 66.8306 34.8387 72.0239 32.6515H72.0098Z" fill="#0C0000"/>
<path d="M75.0217 15.4204L76.4854 28.4315C76.5698 29.1348 76.0631 29.7677 75.3594 29.8381C72.0661 30.2108 63.2558 31.2517 60.1173 31.6244C59.498 31.6948 58.9351 31.2447 58.8788 30.6117L57.6121 17.1013L75.0217 15.4204Z" fill="#FFC400"/>
<path d="M75.1905 16.7145L75.0216 15.4204L58.0695 17.0521L58.2314 18.6978C58.2877 19.3026 58.8365 19.7316 59.4417 19.6613L74.2405 17.9312C74.8457 17.8538 75.2609 17.3193 75.1905 16.7145Z" fill="#E2A500"/>
<path d="M53.2492 28.0377C53.0592 28.0377 39.5833 32.6795 38.4433 33.7626C37.3104 34.8386 37.05 36.618 37.6833 38.4044L41.5959 49.3477C41.7226 49.7205 42.0885 49.9526 42.4755 49.9526L45.4662 49.9104C45.8251 49.9104 46.1136 49.5728 46.0714 49.2141C45.797 46.9002 44.7907 39.3679 43.2918 38.0738C43.2918 38.0738 43.2426 37.5745 43.7422 37.4971C44.2418 37.4268 53.5236 37.6307 56.5706 35.0848C59.6247 32.5389 59.7514 29.3599 57.5206 28.6707C55.2899 27.9815 53.2632 28.0377 53.2632 28.0377H53.2492Z" fill="#0C513F"/>
<path d="M45.6985 49.207C45.6985 49.207 46.4725 51.7811 46.6766 52.7587C46.8385 53.4761 47.0144 54.4115 47.0988 54.8545C47.127 54.9952 47.0285 55.1148 46.8807 55.1288L44.9807 55.2132L44.8259 54.7561C44.8259 54.7561 43.4326 55.7337 41.9478 55.8321C40.4629 55.9306 38.8092 55.9939 38.2955 55.6352C37.7818 55.2765 38.0352 54.2919 39.4285 54.2356C40.8218 54.1794 42.4052 49.6642 42.4052 49.6642L45.6985 49.207Z" fill="#2B2B2B"/>
<path d="M54.157 8.94326L54.1851 9.75206C54.1851 9.75206 53.0944 10.5538 51.7151 11.2009C50.3359 11.8479 49.1114 12.5231 49.1114 12.5231L47.9152 12.291L54.1711 8.9292L54.157 8.94326Z" fill="#54281C"/>
<path d="M46.0996 12.6847C46.7752 12.9309 48.3303 12.4737 50.0263 11.6931C52.4118 10.617 55.107 8.90097 56.1414 7.62096C56.1977 7.55063 56.2399 7.49437 56.2821 7.4381C56.3947 6.99502 56.4581 6.53085 56.4581 6.05963V6.01744C56.4581 2.86665 53.8966 0.306641 50.744 0.306641C47.5914 0.306641 45.227 2.68379 45.037 5.68689C44.4881 8.17657 45.1074 12.326 46.1137 12.6847H46.0996Z" fill="#FFC400"/>
<path d="M45.0229 10.5185C45.3677 11.5383 50.6877 8.75326 52.6018 7.52952C52.6018 7.52952 52.6018 7.52952 52.6159 7.52952C52.6722 7.24117 52.8622 6.11589 52.7918 5.30006C52.7144 4.55456 52.3977 4.33654 52.271 4.28027C52.257 4.28027 52.2288 4.29434 52.2148 4.30841C49.8011 5.42665 44.9877 5.68687 44.9877 5.68687C44.9877 5.68687 44.4037 8.70403 45.0229 10.5326V10.5185Z" fill="#FCD363"/>
<path d="M52.7848 5.27886C52.8551 6.09469 52.6722 7.21997 52.6159 7.50832C52.9466 7.29733 53.1929 7.12854 53.2773 7.03008C53.9107 6.39711 54.8607 2.4305 52.9185 3.86523C52.7285 4.01292 52.5103 4.14655 52.2499 4.25908C52.3977 4.31534 52.7144 4.53336 52.7707 5.27886H52.7848Z" fill="#333333"/>
<path d="M59.0336 30.1547C59.0336 30.2954 58.8436 30.3657 58.7591 30.2673C58.2595 29.7398 57.028 28.6708 55.1562 28.6567C51.9332 28.6286 47.8729 29.993 47.8729 29.993C47.8729 29.993 47.3099 27.1235 47.1973 26.16C47.0566 24.8096 47.0496 20.9204 47.0496 20.9204L57.3377 15.083L57.8725 15.5472C57.8725 15.5472 58.8647 17.9314 59.1673 23.607C59.2376 24.9433 59.0899 28.8747 59.0336 30.1688V30.1547Z" fill="#FFC1D8"/>
<path d="M34.8475 21.6377L38.1197 23.3819L37.6974 24.6338L34.0171 22.7911L33.9186 21.701L34.8475 21.6377Z" fill="#444444"/>
<path d="M38.0141 22.1302L34.4252 20.7095C34.1226 20.597 33.7849 20.6603 33.5737 20.8924L32.8489 21.6379C32.5886 21.8981 32.5604 22.299 32.7504 22.6155L33.44 23.6704C33.616 23.9306 33.9186 24.0854 34.2352 24.0713L35.9874 23.9728L35.7763 23.4946L34.6363 23.2836C34.6363 23.2836 34.4604 22.721 34.6786 22.3623C34.953 21.9333 35.4526 22.0317 35.4526 22.0317L37.7256 23.1781L38.0282 22.1443L38.0141 22.1302Z" fill="#683A28"/>
<path d="M57.8584 15.5262C57.8584 15.5262 55.9092 11.1024 52.8762 12.0941C49.8433 13.0858 47.8588 16.7499 47.1411 17.2423C46.5077 17.6713 38.8796 20.6603 37.0359 21.3777C36.8459 21.448 36.7967 21.6871 36.9233 21.8278C37.1556 22.1161 37.4441 22.5803 37.3878 23.1218C37.3456 23.5087 37.2822 23.8251 37.24 24.0361C37.1837 24.2682 37.3385 24.5144 37.5848 24.5425C38.2604 24.6269 39.5552 24.7183 40.5052 24.43C41.8563 24.0291 50.1318 21.3917 51.8136 19.6405C53.4955 17.8893 57.8725 15.5262 57.8725 15.5262H57.8584Z" fill="#FFC1D8"/>
<path d="M37.6904 23.8952L36.2971 23.2973L37.2119 22.9668L37.9508 23.2341L37.6904 23.8952Z" fill="#444444"/>
<path d="M37.6271 24.6198C37.2259 24.6198 36.8952 24.2963 36.8952 23.8884C36.8952 23.4875 37.2259 23.1499 37.6271 23.1499C38.0352 23.1499 38.3659 23.4875 38.3659 23.8884C38.3659 24.2963 38.0352 24.6198 37.6271 24.6198Z" fill="#565656"/>
<path d="M36.4167 28.6706C35.0726 28.6706 33.9889 28.3471 33.9889 27.9532C33.9889 27.5523 35.0726 27.2358 36.4167 27.2358C37.7607 27.2358 38.8515 27.5523 38.8515 27.9532C38.8515 28.3471 37.7607 28.6706 36.4167 28.6706Z" fill="#E2A500"/>
<path d="M36.3111 28.2065C35.3682 28.2065 34.6011 28.0588 34.6011 27.876C34.6011 27.6931 35.3682 27.5454 36.3111 27.5454C37.2541 27.5454 38.0211 27.6931 38.0211 27.876C38.0211 28.0588 37.2541 28.2065 36.3111 28.2065Z" fill="#FFC400"/>
<path d="M36.3041 28.0516C35.8044 28.0516 35.3963 27.9743 35.3963 27.8758C35.3963 27.7844 35.8044 27.707 36.3041 27.707C36.8037 27.707 37.2118 27.7844 37.2118 27.8758C37.2118 27.9743 36.8037 28.0516 36.3041 28.0516Z" fill="#E2A500"/>
<path d="M67.5132 27.2358C69.1247 27.2358 70.4335 25.9277 70.4335 24.3171C70.4335 22.7066 69.1247 21.3984 67.5132 21.3984C65.9017 21.3984 64.5928 22.7066 64.5928 24.3171C64.5928 25.9277 65.9017 27.2358 67.5132 27.2358Z" fill="#0C513F"/>
<path d="M69.1739 24.4649C68.9698 25.2104 68.252 25.7238 67.4569 25.6394C67.1965 25.6112 66.9502 25.5198 66.7391 25.3862L65.6343 26.0262L66.2113 24.8165C66.0565 24.5422 65.9861 24.2117 66.0213 23.8741C66.1128 22.9879 66.908 22.3479 67.7876 22.4394C68.625 22.5238 69.2443 23.2411 69.2302 24.064C69.1457 24.0569 68.4843 23.9796 68.1957 23.7897C68.055 23.6983 67.858 23.5365 67.668 23.5154C67.3795 23.4873 67.105 23.6772 67.0839 24.0429C67.0698 24.3383 67.3443 24.5493 67.5483 24.5633C67.8298 24.5844 67.9987 24.4297 68.2943 24.4016C68.5828 24.3734 69.1457 24.4649 69.1739 24.4719V24.4649Z" fill="#FFC400"/>
</svg>
