<svg width="76" height="64" viewBox="0 0 76 64" fill="none" xmlns="http://www.w3.org/2000/svg">
<path d="M24.8266 27.1825L32.4054 27.0137L32.9332 29.6299L22.8069 30.2489L24.8266 27.1825Z" fill="#1E1E1E"/>
<path d="M26.818 28.1953L20.0695 40.4608L18.2681 39.5395L25.2488 27.2036L26.818 28.1953Z" fill="#444444"/>
<path d="M55.156 41.5371L43.932 36.1709L30.0691 37.3806L28.3873 39.8632L29.5062 50.3635C29.5062 50.3635 32.8065 53.9714 35.9239 55.167C39.7942 56.651 52.4397 56.2853 52.4397 56.2853L55.1701 41.5371H55.156Z" fill="#0C0000"/>
<path d="M63.1782 63.3886C56.7675 63.3886 51.5671 58.1912 51.5671 51.7841C51.5671 45.3771 56.7675 40.1797 63.1782 40.1797C69.5889 40.1797 74.7822 45.3771 74.7822 51.7841C74.7822 58.1912 69.5889 63.3886 63.1782 63.3886Z" fill="#303030"/>
<path d="M63.1782 59.865C58.7167 59.865 55.0927 56.243 55.0927 51.784C55.0927 47.3181 58.7167 43.7031 63.1782 43.7031C67.6467 43.7031 71.2637 47.3181 71.2637 51.784C71.2637 56.243 67.6467 59.865 63.1782 59.865Z" fill="#0C0000"/>
<path d="M63.18 61.122C58.0236 61.122 53.8436 56.9391 53.8436 51.7857C53.8436 46.6323 58.0236 42.46 63.18 42.46C68.3363 42.46 72.5163 46.6323 72.5163 51.7857C72.5163 56.9391 68.3363 61.122 63.18 61.122Z" stroke="#3D3D3D" stroke-width="1.07635" stroke-miterlimit="10"/>
<path d="M23.3488 23.019L25.3473 25.6213L19.781 27.0419L23.3488 23.019Z" fill="#1E1E1E"/>
<path d="M47.4998 28.603L44.1431 29.8268L44.6357 31.4092L48.1894 29.6439L47.4998 28.603Z" fill="#00160F"/>
<path d="M49.1816 12.8281C49.1816 12.8281 48.1471 14.6356 46.6975 15.8031C45.2409 16.9706 34.3546 20.9934 34.3546 20.9934C34.3546 20.9934 35.9379 21.2607 36.0224 22.1258L47.7742 17.9763L50.8071 13.862L49.1816 12.8281Z" fill="#FFB2CE"/>
<path d="M32.2365 39.6239C31.8073 39.9404 31.6876 40.5312 31.9621 40.9743C32.7643 42.2824 33.9958 44.6244 34.3828 47.2688C34.988 51.348 35.1428 50.7361 35.1428 50.7361L37.9646 47.9299C37.9646 47.9299 37.275 41.544 38.4783 39.0472C38.4783 39.0472 37.5002 36.649 34.8261 37.8516C33.1021 38.6323 32.701 39.2934 32.2365 39.638V39.6239Z" fill="#333333"/>
<path d="M56.5634 56.6859C56.5634 56.6859 54.0934 57.3751 51.2857 57.5087C47.4716 57.6775 35.0865 57.6916 30.9276 52.874C27.1558 48.5206 29.0276 45.5737 29.0276 45.5737L30.048 46.1575C30.048 46.1575 28.3662 51.4252 34.6502 53.9852C40.9342 56.5452 52.7916 54.8573 52.7916 54.8573L56.5634 56.6999V56.6859Z" fill="#1C1C1C"/>
<path d="M30.1324 39.202C30.1324 39.202 30.618 44.4416 32.1028 46.8398C33.5876 49.2381 35.6987 50.3352 35.6987 50.3352L36.3039 52.5155C36.3039 52.5155 35.6002 54.0416 34.6642 53.8236C33.7283 53.6126 31.4413 51.9669 30.3506 48.4785C29.2598 44.9831 28.2183 45.7427 27.6695 42.0363C27.1206 38.3299 27.4021 39.0332 27.4021 39.0332L30.1324 39.1879V39.202Z" fill="#333333"/>
<path d="M74.9581 32.8651L75.9996 42.8872C76.0137 43.0911 75.9644 43.274 75.8378 43.4357C75.507 43.8788 74.8315 43.8577 74.543 43.3795L70.1448 36.4027L74.9793 32.8511L74.9581 32.8651Z" fill="#444444"/>
<path d="M70.9963 30.8117C70.9963 30.8117 74.2333 30.3053 75.2537 30.7624C75.6125 30.9242 75.7181 31.4024 75.7463 31.8737C75.7603 32.5207 75.4507 33.1396 74.937 33.5123C73.41 34.6165 69.8492 37.1625 68.2941 37.7251C66.1619 38.5058 58.1186 38.6042 58.1186 38.6042L57.9356 37.2187L70.9963 30.8117Z" fill="#333333"/>
<path d="M12.1951 63.3883C5.46071 63.3883 0 57.9237 0 51.1931C0 44.4625 5.46071 39.0049 12.1951 39.0049C18.9295 39.0049 24.3973 44.4625 24.3973 51.1931C24.3973 57.9237 18.9295 63.3883 12.1951 63.3883Z" fill="#303030"/>
<path d="M12.2021 59.689C7.50845 59.689 3.6944 55.8912 3.6944 51.1931C3.6944 46.5021 7.50845 42.6973 12.2021 42.6973C16.8958 42.6973 20.7028 46.5021 20.7028 51.1931C20.7028 55.8912 16.8958 59.689 12.2021 59.689Z" fill="#0C0000"/>
<path d="M12.1969 61.0007C6.77662 61.0007 2.39081 56.6121 2.39081 51.1949C2.39081 45.7778 6.77662 41.3892 12.1969 41.3892C17.6171 41.3892 22.0082 45.7778 22.0082 51.1949C22.0082 56.6121 17.6171 61.0007 12.1969 61.0007Z" stroke="#3D3D3D" stroke-width="1.07635" stroke-miterlimit="10"/>
<path d="M46.8313 31.1421C46.8313 31.1421 42.3065 27.9632 40.7231 27.2739C38.2743 26.1979 34.3898 26.4511 32.4195 27.0137C30.8995 27.4427 25.671 29.9043 25.671 29.9043L22.4551 35.9104C22.4551 35.9104 22.0892 37.1272 22.3777 37.5421C23.5458 39.2371 28.8517 40.3905 30.8643 40.1443C35.4946 39.5535 46.8313 31.1421 46.8313 31.1421Z" fill="#028C5B"/>
<path d="M12.4836 56.5313C9.84475 56.5313 7.70551 54.3933 7.70551 51.7559C7.70551 49.1185 9.84475 46.9805 12.4836 46.9805C15.1225 46.9805 17.2618 49.1185 17.2618 51.7559C17.2618 54.3933 15.1225 56.5313 12.4836 56.5313Z" fill="#A89B75"/>
<path d="M12.4555 54.8924C10.647 54.8924 9.17627 53.4225 9.17627 51.615C9.17627 49.8075 10.647 48.3306 12.4555 48.3306C14.264 48.3306 15.7348 49.8075 15.7348 51.615C15.7348 53.4225 14.264 54.8924 12.4555 54.8924Z" fill="#0C0000"/>
<path d="M63.5722 56.5313C60.9334 56.5313 58.7941 54.3933 58.7941 51.7559C58.7941 49.1185 60.9334 46.9805 63.5722 46.9805C66.2111 46.9805 68.3504 49.1185 68.3504 51.7559C68.3504 54.3933 66.2111 56.5313 63.5722 56.5313Z" fill="#A89B75"/>
<path d="M63.5371 54.8924C61.7285 54.8924 60.2578 53.4225 60.2578 51.615C60.2578 49.8075 61.7285 48.3306 63.5371 48.3306C65.3456 48.3306 66.8163 49.8075 66.8163 51.615C66.8163 53.4225 65.3456 54.8924 63.5371 54.8924Z" fill="#0C0000"/>
<path d="M19.6473 40.9956L13.3773 52.4031C13.117 52.8813 12.5188 53.0642 12.0262 52.818C11.5266 52.5578 11.3366 51.9248 11.6111 51.4255L18.064 40.0039L19.6332 40.9956H19.6473Z" fill="#444444"/>
<path d="M12.5892 52.1147C12.364 52.1147 12.181 51.9389 12.181 51.7139C12.181 51.4888 12.364 51.313 12.5892 51.313C12.8144 51.313 12.9903 51.4888 12.9903 51.7139C12.9903 51.9389 12.8144 52.1147 12.5892 52.1147Z" fill="#0C0000"/>
<path d="M25.2769 51.9105C25.2769 51.9105 25.9384 45.9817 23.6373 43.2177C21.3362 40.4538 18.1133 37.739 13.9685 37.7953C9.82368 37.8516 5.41852 40.3553 5.41852 40.3553C5.41852 40.3553 5.41852 41.1149 8.54295 40.714C11.6674 40.3131 14.4259 40.8125 15.0874 42.7536L15.6503 44.5962L18.4088 43.4147C18.4088 43.4147 21.6881 43.6116 22.9125 46.2771C24.1369 48.9356 23.8343 51.4956 25.2769 51.8965V51.9105Z" fill="#1E1E1E"/>
<path d="M16.2766 33.6038C16.2766 33.6038 16.6355 33.7585 17.2266 33.871C17.2125 33.5124 17.0999 31.2759 17.3885 30.1084C17.691 28.8846 22.1103 26.1207 22.5114 25.8745C20.0203 26.409 16.8044 27.3303 16.0092 28.6244C14.6862 30.8117 16.2625 33.6108 16.2625 33.6108L16.2766 33.6038Z" fill="#FFC400"/>
<path d="M32.4969 22.7731C32.4969 22.7731 29.7524 21.8236 28.901 22.1682C27.4654 22.759 25.2628 27.1968 25.2628 27.1968L24.8054 26.7115C24.8054 26.7115 27.1347 21.0359 28.7743 20.9445C30.4139 20.8601 32.8417 21.8658 32.8417 21.8658L32.4969 22.759V22.7731Z" fill="#565656"/>
<path d="M17.2477 33.8568C18.5284 34.0889 20.914 34.0959 23.1025 31.7328C26.2973 28.2796 25.6077 25.3047 25.6077 25.3047C25.6077 25.3047 24.2495 25.4946 22.5536 25.8533C22.1384 26.1135 17.7333 28.8704 17.4307 30.0942C17.1422 31.2616 17.2477 33.4981 17.2759 33.8568H17.2477Z" fill="#333333"/>
<path d="M23.4614 21.2817L16.7621 27.9209L21.3362 26.0642C21.3362 26.0642 24.4677 24.2567 23.4614 21.2817Z" fill="#444444"/>
<path d="M57.3234 35.8403L63.0515 50.0611L61.6441 50.5956L56.0215 36.2131L57.3234 35.8403Z" fill="#444444"/>
<path d="M33.3624 15.7398C33.3624 15.7398 33.7354 15.0646 33.8902 13.8268C33.9887 13.025 33.7354 12.2936 33.7354 12.2936C33.6509 11.9912 33.278 11.8927 33.0458 12.1037C33.0458 12.1037 31.5328 12.8703 30.998 14.0729C30.7939 14.523 31.1458 15.5428 31.1458 15.5428C31.3358 15.9859 31.765 16.2883 32.2365 16.3165L32.6587 16.3446C33.0035 16.3446 33.292 16.0844 33.3624 15.7398Z" fill="#444444"/>
<path d="M32.2365 16.3168L30.998 16.0706L28.7954 20.9023L28.5562 20.5577L30.6391 15.9722L30.998 14.0732L32.2365 16.3168Z" fill="#444444"/>
<path d="M29.7454 14.7621L29.7032 18.2505C29.7032 18.2505 28.6125 18.6584 28.0495 17.8074C27.4866 16.9564 28.9432 14.312 29.7454 14.7621Z" fill="#444444"/>
<path d="M32.9332 20.916C32.9332 20.916 28.7954 19.8611 28.0917 20.4659C27.388 21.0708 24.8406 25.4172 24.8406 25.4172L25.5866 25.3117C25.5866 25.3117 27.7469 21.2747 28.6969 21.1763C29.6469 21.0778 32.5321 21.8796 32.5321 21.8796L32.9332 20.9301V20.916Z" fill="#444444"/>
<path d="M58.7027 46.9662C58.9489 46.6075 58.773 46.1152 58.3578 46.0026C58.0834 45.9323 57.7386 45.9604 57.4078 46.291C56.5916 47.1068 54.8464 49.8849 52.876 49.9411C50.9057 49.9974 50.2583 48.3024 49.2238 48.633C48.1894 48.9635 43.8194 50.8765 43.8194 50.8765C43.8194 50.8765 44.1994 55.0189 46.4301 54.7447C48.6609 54.4704 53.6431 53.4998 55.0082 52.0159C56.0779 50.8624 57.9427 48.1125 58.7027 46.9662Z" fill="#5E5E5E"/>
<path d="M44.2064 46.4106C44.2064 46.4106 46.0571 45.7495 46.9368 46.5231C47.8164 47.3038 49.2801 47.993 49.829 47.7187C50.3779 47.4444 50.9197 48.8088 49.8853 49.1394C48.8508 49.4699 45.2972 49.6317 45.2972 49.6317L44.2064 46.4106Z" fill="#444444"/>
<path d="M41.5042 52.0299C40.132 52.0299 39.0131 50.9117 39.0131 49.5403C39.0131 48.1688 40.132 47.0576 41.5042 47.0576C42.8764 47.0576 43.9953 48.1688 43.9953 49.5403C43.9953 50.9117 42.8764 52.0299 41.5042 52.0299Z" fill="#3D3D3D"/>
<path d="M35.1428 50.7362C35.1428 52.2905 36.4094 53.5565 37.9646 53.5565C39.1187 53.5565 40.125 52.8532 40.5542 51.8615C40.1813 52.5508 39.4424 53.0079 38.5979 53.0079C37.3594 53.0079 36.3672 52.0022 36.3672 50.7784C36.3672 49.5617 37.3735 48.549 38.5979 48.549C39.5057 48.549 40.2938 49.0975 40.6387 49.8782C40.2657 48.76 39.2172 47.9512 37.9646 47.9512C36.4094 47.9512 35.1428 49.2101 35.1428 50.7503V50.7362Z" fill="#333333"/>
<path d="M36.3531 50.7641C36.3531 52.0019 37.3594 52.9936 38.5839 52.9936C39.4353 52.9936 40.1672 52.5224 40.5401 51.8472C40.6809 51.5026 40.7512 51.1228 40.7512 50.736C40.7512 50.4336 40.709 50.1312 40.6105 49.8569C40.2657 49.0692 39.4776 48.5347 38.5698 48.5347C37.3313 48.5347 36.3391 49.5263 36.3391 50.7641H36.3531Z" fill="#444444"/>
<path d="M51.9049 7.20157C51.9049 7.20157 51.9049 7.20157 51.8909 7.20157V7.25783C51.8909 7.25783 51.8909 7.2297 51.9049 7.1875V7.20157Z" fill="#FCD363"/>
<path d="M51.4897 3.91739V3.95958C51.4897 3.95958 51.532 3.95255 51.546 3.93849C51.5038 3.92442 51.4897 3.90332 51.4897 3.90332V3.91739Z" fill="#FCD363"/>
<path d="M53.2842 8.34814L53.7838 10.9644L49.2731 13.1376C49.2731 13.1376 48.8227 12.0616 47.4575 12.146L53.2842 8.34814Z" fill="#683A28"/>
<path d="M54.2905 11.8015V10.4793C54.2905 10.3527 54.1849 10.2332 54.0442 10.2472C53.3968 10.3738 51.7079 10.7395 50.6031 11.3725C49.2098 12.1954 48.2598 12.9971 48.2598 12.9971L48.8087 14.2631L54.2764 11.7875L54.2905 11.8015Z" fill="#0C513F"/>
<path d="M74.2896 15.1067L70.1167 12.9897C69.6241 12.7436 69.0682 12.631 68.5052 12.6732L56.7112 13.6227C56.4086 13.6508 56.1905 13.9392 56.2608 14.2416L56.8801 16.7875L74.2896 15.1067Z" fill="#FCD363"/>
<path d="M71.137 45.6372L51.0534 55.0544C50.7508 55.195 50.596 55.5256 50.6664 55.8421C50.7227 56.1164 50.9408 56.3203 51.2153 56.3766C52.0668 56.5524 53.9034 56.8759 54.6775 56.8759C59.7723 56.8759 73.4381 50.1031 73.4381 50.1031C74.0152 49.8781 74.3881 49.3295 74.4022 48.7106C74.4163 48.148 74.36 47.4447 74.0292 46.8117C73.5578 45.8482 72.5655 45.5739 71.9604 45.5036C71.6718 45.4614 71.3833 45.5106 71.123 45.6372H71.137Z" fill="#5E5E5E"/>
<path d="M46.2753 45.8765C46.2753 45.8765 51.0816 49.9275 53.066 49.7728C54.2342 49.6743 56.4931 46.0945 56.7112 42.3248C56.866 39.6382 55.1419 36.3608 55.1419 36.3608L46.2753 45.8765Z" fill="#0C0000"/>
<path d="M54.9238 37.5914C55.543 37.5351 55.9019 38.2806 55.4727 38.7448C53.6853 40.5874 50.4482 43.8086 48.8508 44.7299C48.119 45.1448 46.3597 46.0802 45.5997 45.7215C44.0868 45.0042 42.5809 39.7224 42.5809 39.7224L47.1127 38.2736L54.9378 37.5914H54.9238Z" fill="#333333"/>
<path d="M51.9331 36.5151L50.5961 38.7305C50.5961 38.7305 46.979 38.9908 45.8742 38.7305C44.8257 38.4844 42.2783 36.8598 42.2783 36.8598L51.9331 36.5151Z" fill="#444444"/>
<path d="M71.2778 32.3448C73.1215 31.5712 70.8837 29.1167 70.8837 29.1167L58.7308 29.8341L48.2598 36.9163C48.2598 36.9163 49.0338 38.6605 49.5968 38.6886C51.8275 38.7871 56.859 37.8728 56.859 37.8728C56.859 37.8728 66.0986 34.5321 71.2919 32.3448H71.2778Z" fill="#0C0000"/>
<path d="M74.2896 15.1138L75.7533 28.1248C75.8377 28.8281 75.3311 29.4611 74.6274 29.5314C71.3341 29.9042 62.5237 30.945 59.3852 31.3178C58.766 31.3881 58.203 30.938 58.1467 30.305L56.8801 16.7947L74.2896 15.1138Z" fill="#FFC400" fill-opacity="0.7"/>
<path d="M74.4585 16.4078L74.2896 15.1138L57.3375 16.7454L57.4993 18.3911C57.5556 18.996 58.1045 19.425 58.7097 19.3547L73.5085 17.6246C74.1137 17.5472 74.5289 17.0127 74.4585 16.4078Z" fill="#E2A500"/>
<path d="M52.5171 27.7311C52.3271 27.7311 38.8513 32.3729 37.7113 33.456C36.5783 34.532 36.3179 36.3113 36.9513 38.0977L40.8638 49.0411C40.9905 49.4138 41.3564 49.6459 41.7435 49.6459L44.7342 49.6037C45.0931 49.6037 45.3816 49.2661 45.3394 48.9075C45.0649 46.5936 44.0586 39.0613 42.5598 37.7672C42.5598 37.7672 42.5105 37.2678 43.0101 37.1905C43.5098 37.1201 52.7916 37.3241 55.8386 34.7782C58.8926 32.2322 59.0193 29.0533 56.7886 28.3641C54.5578 27.6748 52.5312 27.7311 52.5312 27.7311H52.5171Z" fill="#FFC1D8"/>
<path d="M44.9664 48.9004C44.9664 48.9004 45.7405 51.4745 45.9446 52.4521C46.1064 53.1694 46.2823 54.1048 46.3668 54.5479C46.3949 54.6885 46.2964 54.8081 46.1486 54.8222L44.2486 54.9066L44.0938 54.4494C44.0938 54.4494 42.7005 55.427 41.2157 55.5255C39.7309 55.6239 38.0772 55.6872 37.5635 55.3286C37.0498 54.9699 37.3031 53.9852 38.6965 53.929C40.0898 53.8727 41.6731 49.3575 41.6731 49.3575L44.9664 48.9004Z" fill="#2B2B2B"/>
<path d="M53.4249 8.63662L53.4531 9.44542C53.4531 9.44542 52.3623 10.2472 50.9831 10.8942C49.6038 11.5413 48.3794 12.2164 48.3794 12.2164L47.1831 11.9843L53.439 8.62256L53.4249 8.63662Z" fill="#54281C"/>
<path d="M45.3675 12.3781C46.0431 12.6242 47.5983 12.1671 49.2942 11.3864C51.6797 10.3104 54.3749 8.59433 55.4093 7.31432C55.4656 7.24399 55.5079 7.18773 55.5501 7.13146C55.6627 6.68838 55.726 6.2242 55.726 5.75299V5.7108C55.726 2.56001 53.1645 0 50.012 0C46.8594 0 44.495 2.37715 44.305 5.38024C43.7561 7.86993 44.3753 12.0194 45.3816 12.3781H45.3675Z" fill="#FF0000"/>
<path d="M44.2909 10.2119C44.6357 11.2317 49.9557 8.44662 51.8697 7.22288C51.8697 7.22288 51.8697 7.22288 51.8838 7.22288C51.9401 6.93453 52.1301 5.80925 52.0597 4.99342C51.9823 4.24792 51.6657 4.0299 51.539 3.97363C51.5249 3.97363 51.4968 3.9877 51.4827 4.00176C49.069 5.12001 44.2557 5.38023 44.2557 5.38023C44.2557 5.38023 43.6716 8.39739 44.2909 10.226V10.2119Z" fill="#FF0000" fill-opacity="0.02"/>
<path d="M52.0527 4.97222C52.1231 5.78805 51.9401 6.91333 51.8838 7.20168C52.2145 6.99069 52.4608 6.8219 52.5453 6.72344C53.1786 6.09047 54.1286 2.12386 52.1864 3.55859C51.9964 3.70628 51.7783 3.83991 51.5179 3.95244C51.6657 4.0087 51.9823 4.22672 52.0386 4.97222H52.0527Z" fill="#333333"/>
<path d="M58.3015 29.8481C58.3015 29.9887 58.1115 30.0591 58.0271 29.9606C57.5274 29.4331 56.296 28.3641 54.4241 28.3501C51.2012 28.3219 47.1408 29.6863 47.1408 29.6863C47.1408 29.6863 46.5779 26.8169 46.4653 25.8533C46.3245 24.503 46.3175 20.6138 46.3175 20.6138L56.6056 14.7764L57.1404 15.2405C57.1404 15.2405 58.1326 17.6247 58.4352 23.3004C58.5056 24.6366 58.3578 28.5681 58.3015 29.8622V29.8481Z" fill="#0C513F"/>
<path d="M34.1154 21.3311L37.3876 23.0752L36.9654 24.3271L33.285 22.4845L33.1865 21.3944L34.1154 21.3311Z" fill="#444444"/>
<path d="M37.282 21.8235L33.6932 20.4029C33.3906 20.2904 33.0528 20.3536 32.8417 20.5857L32.1169 21.3312C31.8565 21.5915 31.8284 21.9923 32.0184 22.3088L32.708 23.3638C32.8839 23.624 33.1865 23.7787 33.5032 23.7647L35.2554 23.6662L35.0443 23.1879L33.9043 22.977C33.9043 22.977 33.7284 22.4143 33.9465 22.0556C34.2209 21.6266 34.7206 21.7251 34.7206 21.7251L36.9935 22.8715L37.2961 21.8376L37.282 21.8235Z" fill="#683A28"/>
<path d="M57.1264 15.2196C57.1264 15.2196 55.1771 10.7958 52.1442 11.7875C49.1112 12.7791 47.1268 16.4433 46.409 16.9356C45.7757 17.3646 38.1476 20.3537 36.3039 21.071C36.1139 21.1413 36.0646 21.3805 36.1913 21.5211C36.4235 21.8095 36.712 22.2737 36.6557 22.8152C36.6135 23.202 36.5502 23.5185 36.508 23.7295C36.4517 23.9616 36.6065 24.2077 36.8528 24.2359C37.5283 24.3203 38.8231 24.4117 39.7731 24.1233C41.1242 23.7225 49.3997 21.0851 51.0816 19.3339C52.7634 17.5827 57.1404 15.2196 57.1404 15.2196H57.1264Z" fill="#0C513F"/>
<path d="M36.9583 23.5885L35.565 22.9907L36.4798 22.6602L37.2187 22.9274L36.9583 23.5885Z" fill="#444444"/>
<path d="M36.895 24.3132C36.4939 24.3132 36.1631 23.9896 36.1631 23.5817C36.1631 23.1808 36.4939 22.8433 36.895 22.8433C37.3031 22.8433 37.6339 23.1808 37.6339 23.5817C37.6339 23.9896 37.3031 24.3132 36.895 24.3132Z" fill="#565656"/>
<path d="M35.6846 28.3639C34.3405 28.3639 33.2568 28.0404 33.2568 27.6466C33.2568 27.2457 34.3405 26.9292 35.6846 26.9292C37.0287 26.9292 38.1194 27.2457 38.1194 27.6466C38.1194 28.0404 37.0287 28.3639 35.6846 28.3639Z" fill="#E2A500"/>
<path d="M35.5791 27.8999C34.6361 27.8999 33.8691 27.7522 33.8691 27.5693C33.8691 27.3865 34.6361 27.2388 35.5791 27.2388C36.522 27.2388 37.2891 27.3865 37.2891 27.5693C37.2891 27.7522 36.522 27.8999 35.5791 27.8999Z" fill="#FFC400"/>
<path d="M35.572 27.745C35.0724 27.745 34.6642 27.6676 34.6642 27.5692C34.6642 27.4778 35.0724 27.4004 35.572 27.4004C36.0716 27.4004 36.4798 27.4778 36.4798 27.5692C36.4798 27.6676 36.0716 27.745 35.572 27.745Z" fill="#E2A500"/>
<path d="M66.7811 26.9292C68.3926 26.9292 69.7015 25.621 69.7015 24.0105C69.7015 22.3999 68.3926 21.0918 66.7811 21.0918C65.1697 21.0918 63.8608 22.3999 63.8608 24.0105C63.8608 25.621 65.1697 26.9292 66.7811 26.9292Z" fill="#FFC1D8"/>
<path d="M68.4418 24.1582C68.2378 24.9037 67.52 25.4171 66.7248 25.3327C66.4644 25.3046 66.2181 25.2132 66.007 25.0795L64.9022 25.7195L65.4793 24.5099C65.3244 24.2356 65.2541 23.905 65.2893 23.5674C65.3807 22.6813 66.1759 22.0413 67.0555 22.1327C67.8929 22.2171 68.5122 22.9345 68.4981 23.7573C68.4137 23.7503 67.7522 23.6729 67.4637 23.4831C67.3229 23.3916 67.1259 23.2299 66.9359 23.2088C66.6474 23.1806 66.373 23.3705 66.3518 23.7362C66.3378 24.0316 66.6122 24.2426 66.8163 24.2567C67.0978 24.2778 67.2666 24.1231 67.5622 24.0949C67.8507 24.0668 68.4137 24.1582 68.4418 24.1653V24.1582Z" fill="#FFC400"/>
</svg>
