<svg width="24" height="25" viewBox="0 0 24 25" fill="none" xmlns="http://www.w3.org/2000/svg">
<path d="M13.733 1.61361L14.312 3.24061C14.3983 3.48308 14.5345 3.70474 14.7118 3.89128C14.8891 4.07782 15.1036 4.22508 15.3414 4.32357C15.5791 4.42205 15.8349 4.46956 16.0922 4.46302C16.3495 4.45648 16.6025 4.39605 16.835 4.28561L18.395 3.54461C19.958 2.80161 21.589 4.43261 20.846 5.99561L20.105 7.55561C19.9942 7.78803 19.9336 8.04112 19.9269 8.29849C19.9202 8.55586 19.9676 8.81176 20.0661 9.04962C20.1647 9.28749 20.312 9.50199 20.4988 9.67926C20.6855 9.85652 20.9073 9.99257 21.15 10.0786L22.777 10.6566C24.407 11.2366 24.407 13.5426 22.777 14.1236L21.15 14.7026C20.9075 14.7889 20.6859 14.9251 20.4993 15.1024C20.3128 15.2797 20.1655 15.4942 20.067 15.732C19.9686 15.9698 19.9211 16.2255 19.9276 16.4828C19.9341 16.7401 19.9946 16.9931 20.105 17.2256L20.846 18.7856C21.589 20.3486 19.958 21.9796 18.395 21.2366L16.835 20.4956C16.6026 20.385 16.3496 20.3244 16.0923 20.3177C15.8351 20.311 15.5793 20.3584 15.3414 20.4568C15.1036 20.5552 14.8891 20.7024 14.7118 20.889C14.5345 21.0755 14.3983 21.2971 14.312 21.5396L13.733 23.1676C13.153 24.7976 10.847 24.7976 10.267 23.1676L9.688 21.5396C9.6016 21.2972 9.46532 21.0757 9.28796 20.8893C9.11061 20.7028 8.89613 20.5557 8.65836 20.4573C8.4206 20.3589 8.16485 20.3115 7.90762 20.3181C7.65039 20.3247 7.3974 20.3852 7.165 20.4956L5.605 21.2356C4.042 21.9796 2.411 20.3486 3.154 18.7856L3.895 17.2256C4.00577 16.9931 4.06648 16.7398 4.07319 16.4823C4.0799 16.2248 4.03247 15.9688 3.93396 15.7307C3.83546 15.4927 3.68807 15.278 3.50135 15.1006C3.31463 14.9231 3.09272 14.7869 2.85 14.7006L1.223 14.1226C-0.407 13.5426 -0.407 11.2356 1.223 10.6556L2.85 10.0776C3.09273 9.99162 3.3147 9.85564 3.50156 9.67847C3.68843 9.50129 3.83603 9.28687 3.93481 9.04906C4.03359 8.81125 4.08135 8.55536 4.07501 8.29793C4.06867 8.0405 4.00837 7.78727 3.898 7.55461L3.156 5.99461C2.413 4.43061 4.044 2.79961 5.608 3.54261L7.168 4.28461C7.40035 4.3949 7.65325 4.45525 7.91036 4.46176C8.16748 4.46828 8.42311 4.42082 8.66075 4.32245C8.89839 4.22407 9.11277 4.07697 9.29005 3.89063C9.46733 3.70429 9.60358 3.48286 9.69 3.24061L10.268 1.61361C10.846 -0.0163867 13.152 -0.0163867 13.732 1.61361H13.733Z" fill="black"/>
</svg>
