<svg width="250" height="561" viewBox="0 0 250 561" fill="none" xmlns="http://www.w3.org/2000/svg">
<g clip-path="url(#clip0_205_815)">
<path d="M208.044 3.92214V22.0423C202.833 22.7141 192.466 23.1771 180.528 23.1771C167.755 23.1771 156.78 22.6505 151.995 21.9061V3.92214C151.995 3.04155 152.322 2.22451 152.867 1.61627C158.141 2.94169 168.1 3.84044 179.53 3.84044C191.54 3.84044 201.944 2.85091 206.964 1.40747C207.627 2.03387 208.035 2.94169 208.035 3.93122H208.044V3.92214Z" fill="#FFC501"/>
<path d="M211.803 42.7496C211.803 43.1127 210.323 43.7482 208.035 44.0387C202.824 44.7105 192.457 45.1735 180.519 45.1735C167.746 45.1735 156.771 44.6469 151.986 43.9025C150.334 43.6483 148.936 43.5031 148.872 42.9039C148.845 42.6043 149 42.1141 150.289 41.9325V21.6154C155.073 22.3689 167.746 23.1769 180.51 23.1769C192.448 23.1769 204.34 22.1964 209.551 21.5247V41.5603C211.993 41.8145 211.785 42.3955 211.785 42.7496H211.803Z" fill="#ED5E3B"/>
<path d="M208.044 44.0388V117.355H152.004V43.9026C156.789 44.6561 167.764 45.1735 180.537 45.1735C192.475 45.1735 202.833 44.7196 208.053 44.0388H208.044V44.0388Z" fill="#FF884D"/>
<path d="M249.514 216.489V534.935C249.514 541.118 240.853 560.391 181.554 560.391C117.798 560.391 112.968 541.108 112.968 534.917V216.489C112.968 201.129 119.277 187.239 129.445 177.28C135.3 170.626 151.033 151.834 152.032 140.504H207.999C208.88 151.162 224.412 168.447 231.621 175.937C242.623 185.977 249.523 200.43 249.523 216.498H249.514V216.489Z" fill="#FF884D"/>
<path d="M206.973 1.39831C201.953 2.84175 191.549 3.83128 179.539 3.83128C167.528 3.83128 158.141 2.93253 152.876 1.60711C153.521 0.853615 154.474 0.390625 155.536 0.390625H204.513C205.475 0.390625 206.347 0.762833 206.973 1.39831V1.39831Z" fill="#ED5E3B"/>
<path d="M137.833 250.396V379.652H137.361C131.597 378.381 125.941 376.756 120.485 374.713V247.927C124.688 248.662 130.553 249.57 137.833 250.396Z" fill="#FFC501"/>
<path d="M120.485 247.927V374.713C117.916 373.76 115.401 372.707 112.932 371.563V246.447C112.932 246.447 115.574 247.074 120.485 247.927Z" fill="#FEDC67"/>
<path d="M249.514 247.137V374.06C249.514 374.06 189.271 391.145 137.361 379.652H137.833V250.396C162.172 253.183 202.38 255.144 249.514 247.137V247.137Z" fill="#FEDC67"/>
<path d="M208.044 111.299V140.495C208.044 140.495 199.293 144.308 181.763 144.308C160.574 144.308 151.995 140.495 151.995 140.495V111.299C151.995 111.299 164.305 114.422 180.283 114.422C194.327 114.422 208.044 111.299 208.044 111.299V111.299Z" fill="#ED5E3B"/>
<path d="M121.647 549.479L125.696 543.85C130.307 539.892 132.931 534.1 132.868 528.027L130.97 363.611C130.879 355.413 127.92 347.497 122.6 341.251L112.478 329.34L114.094 541.935L121.647 549.488V549.479Z" fill="#FFC501"/>
<path d="M123.208 532.711C123.208 532.711 121.329 538.185 109.418 542.87C100.485 546.392 85.9149 549.479 62.257 549.479C38.5991 549.479 24.2283 546.465 15.1228 542.997C2.75828 538.276 0.615817 532.72 0.615817 532.72L0.461487 364.319C0.461487 348.523 10.0027 344.592 13.2981 337.175C19.0537 339.835 37.0831 343.167 62.0845 343.167C85.2613 343.167 104.87 340.77 111.361 337.465C113.358 344.183 123.063 350.801 123.063 364.292L123.217 532.72H123.208V532.711Z" fill="#FFC501"/>
<path d="M109.418 542.87C108.928 551.267 88.012 558.021 62.2752 558.021C36.5384 558.021 15.8037 551.321 15.1228 542.988C24.2283 546.455 38.8624 549.469 62.257 549.469C85.6516 549.469 100.485 546.392 109.418 542.86V542.87Z" fill="#E5AA03"/>
<path d="M113.631 335.078C113.631 335.913 112.832 336.712 111.352 337.465C104.87 340.761 85.2613 343.167 62.0755 343.167C37.0649 343.167 16.2213 340.37 11.5188 336.657C10.8651 336.158 10.5292 335.623 10.5292 335.087C10.5292 334.125 11.6005 333.199 13.5705 332.354C21.0872 335.35 39.743 337.484 61.558 337.484C83.373 337.484 102.918 335.259 110.072 332.127C112.36 333.053 113.622 334.043 113.622 335.087H113.631V335.078Z" fill="#FFDC67"/>
<path d="M122.455 358.654C122.455 358.654 122.391 358.69 122.355 358.709C114.421 362.739 90.4359 365.672 62.0846 365.672C33.7332 365.672 7.98735 362.512 1.00619 358.236C1.41471 356.058 2.04111 354.16 2.7946 352.463C5.83581 345.709 11.0376 342.259 13.289 337.166C19.0446 339.826 37.074 343.158 62.0846 343.158C85.2613 343.158 104.87 340.761 111.361 337.456C112.659 341.832 117.235 346.171 120.258 352.39C121.184 354.287 121.965 356.357 122.455 358.663V358.654Z" fill="#FFD134"/>
<path d="M110.081 332.109C107.766 333.126 104.198 334.043 99.6684 334.815C90.2271 333.144 76.4191 332.082 61.0406 332.082C45.662 332.082 32.3533 333.099 22.9301 334.724C18.9902 334.025 15.7946 333.217 13.5795 332.336C20.7332 329.213 39.7612 326.98 62.0846 326.98C84.4079 326.98 102.564 329.113 110.081 332.109V332.109Z" fill="#FFD134"/>
<path d="M99.6684 334.815C90.2452 336.44 76.6642 337.465 61.5671 337.465C46.47 337.465 32.3715 336.412 22.9301 334.733C32.3533 333.117 45.9434 332.091 61.0405 332.091C76.1377 332.091 90.2271 333.144 99.6684 334.824V334.815Z" fill="#FFC501"/>
<path d="M62.0664 447.875C62.0664 486.23 42.875 517.314 19.199 517.314C12.5355 517.314 6.22617 514.854 0.597663 510.46L0.488724 385.38C6.14446 380.923 12.4901 378.417 19.208 378.417C42.8841 378.417 62.0755 409.51 62.0755 447.866H62.0664V447.875Z" fill="#ED5E3B"/>
<path opacity="0.8" d="M97.1538 404.318C89.9003 404.753 95.3926 390.255 97.1538 389.883C98.6608 389.566 103.962 403.909 97.1538 404.318Z" fill="#CEC095"/>
<path opacity="0.8" d="M97.7439 403.038C90.4359 403.482 95.9736 388.866 97.7439 388.485C99.2599 388.158 104.607 402.62 97.7439 403.038Z" fill="#FEF9E5"/>
<path opacity="0.8" d="M60.5503 521.091C53.2968 521.527 58.7891 507.029 60.5503 506.657C62.0573 506.339 67.359 520.682 60.5503 521.091Z" fill="#CEC095"/>
<path opacity="0.8" d="M61.1404 519.82C53.8324 520.265 59.3701 505.649 61.1404 505.268C62.6564 504.941 68.0035 519.402 61.1404 519.82Z" fill="#FEF9E5"/>
<path opacity="0.8" d="M97.1901 386.37C96.9631 386.551 96.6363 386.443 96.5728 386.161C96.255 384.745 94.5665 381.776 97.3716 376.057C97.3716 376.057 96.8633 378.662 98.0344 381.595C99.1691 384.427 97.8437 385.861 97.1901 386.379V386.37Z" fill="#CEC095"/>
<path opacity="0.8" d="M97.1901 385.426C96.9631 385.607 96.6363 385.498 96.5727 385.217C96.255 383.801 94.5665 380.832 97.3716 375.113C97.3716 375.113 96.8632 377.718 98.0343 380.651C99.1691 383.483 97.8437 384.917 97.1901 385.435V385.426Z" fill="#FEF9E5"/>
<path opacity="0.8" d="M60.3415 501.645C60.1146 501.827 59.7877 501.718 59.7242 501.436C59.4065 500.02 57.7179 497.052 60.5231 491.332C60.5231 491.332 60.0147 493.938 61.1858 496.87C62.3206 499.703 60.9952 501.137 60.3415 501.654V501.645Z" fill="#CEC095"/>
<path opacity="0.8" d="M60.3415 500.701C60.1146 500.883 59.7877 500.774 59.7242 500.492C59.4065 499.076 57.7179 496.108 60.5231 490.388C60.5231 490.388 60.0147 492.994 61.1858 495.926C62.3206 498.758 60.9951 500.193 60.3415 500.71V500.701Z" fill="#FEF9E5"/>
</g>
<defs>
<clipPath id="clip0_205_815">
<rect width="249.061" height="560" fill="white" transform="translate(0.461487 0.390625)"/>
</clipPath>
</defs>
</svg>
