<svg width="122" height="122" viewBox="0 0 122 122" fill="none" xmlns="http://www.w3.org/2000/svg">
<path d="M60.4017 111.238C88.5048 111.238 111.287 88.4559 111.287 60.3526C111.287 32.2495 88.5048 9.46729 60.4017 9.46729C32.2984 9.46729 9.51627 32.2495 9.51627 60.3526C9.51627 88.4559 32.2984 111.238 60.4017 111.238Z" fill="#0C513F" stroke="white" stroke-width="1.31351" stroke-miterlimit="10"/>
<path d="M32.6241 52.9264C36.9751 52.1711 41.6381 51.4552 45.6476 53.2941C49.7688 55.1823 52.3564 59.4775 53.4039 63.8876C54.1263 66.9415 54.0048 70.649 51.542 72.5863C49.7885 73.9688 47.3519 74.0345 45.1288 73.8079C42.8531 73.578 40.3805 72.9705 39.0472 71.1086C37.6483 69.1384 37.9931 66.3964 39.0669 64.2456C39.7814 62.7773 40.8241 61.493 42.1143 60.4922C44.3505 58.788 47.1909 58.1542 49.9264 57.5006C54.1952 56.4893 58.4346 55.317 62.3423 53.3467C66.25 51.3764 69.8228 48.5556 72.0754 44.8089C72.6513 43.9152 73.0617 42.9253 73.2871 41.8863C73.525 40.5857 73.3158 39.2429 72.6933 38.0764C72.0709 36.9099 71.072 35.9883 69.8592 35.4619C68.6463 34.9354 67.291 34.835 66.0137 35.1769C64.7366 35.5188 63.6127 36.2829 62.825 37.3448C60.7891 40.0967 61.5313 44.0306 63.0647 47.0911C64.5982 50.1516 66.8313 52.9099 67.708 56.22C67.974 57.2248 68.1283 58.3084 68.7752 59.1228C69.7932 60.4035 71.7306 60.5809 73.2773 60.0194C75.3953 59.2443 76.9518 57.3365 77.7399 55.225C78.528 53.1136 78.6233 50.8083 78.5182 48.559C78.4599 46.2277 78.0469 43.9191 77.2934 41.7123C76.19 38.7076 74.2131 36.0576 73.3068 32.9873C72.4005 29.9169 72.9785 25.9797 75.8124 24.4922C76.8665 23.9372 78.0847 23.8026 79.2735 23.7861C82.8626 23.7435 86.6291 24.8665 88.9968 27.5559C90.7207 29.5262 91.5581 32.1204 91.8273 34.7113C92.2115 38.4154 91.4628 42.3263 89.2463 45.3145C87.9591 47.0517 86.1891 48.4932 85.4207 50.5127C84.8559 51.9839 84.8789 53.6422 84.209 55.0674C83.0695 57.4908 80.2291 58.6205 77.5692 58.9389C74.9094 59.2575 72.1739 58.9948 69.583 59.6614C67.0579 60.3181 64.8216 61.8122 62.3095 62.515C60.198 63.1027 57.9683 63.1094 55.7781 63.0109C52.6716 62.8696 49.4995 62.5051 46.7082 61.1293C42.0453 58.8306 38.9487 53.3993 39.9141 48.2897C40.3903 45.7842 41.7268 43.5348 43.0896 41.3773C46.5736 35.8573 50.8491 30.1895 57.1112 28.344C62.4638 26.7645 68.2137 28.3178 73.4447 30.2684C75.9207 31.1944 78.4689 32.2812 80.17 34.3073C80.8781 35.215 81.489 36.1946 81.9925 37.2299C85.2149 43.3596 88.2305 49.59 91.0392 55.9211C92.3691 58.9192 93.617 62.5412 91.8503 65.3062C90.4745 67.4637 87.6865 68.2616 85.1284 68.3239C81.7462 68.4027 77.9042 67.0532 76.7417 63.8744C76.1605 62.2753 76.3674 60.4725 75.773 58.8798C75.1786 57.2872 73.0835 55.9999 71.8127 57.1296C71.4097 57.5436 71.1309 58.0624 71.0082 58.627C70.4637 60.353 70.4136 62.197 70.8637 63.95C71.5796 66.4884 73.5269 68.5111 74.4594 70.9806C74.9781 72.3943 75.1551 73.9108 74.976 75.406C74.7967 76.9012 74.2665 78.3329 73.4283 79.5841C71.9178 81.8007 69.1759 83.3505 66.5554 82.7726C63.311 82.0535 61.4393 78.2509 62.0041 74.9769C62.5689 71.703 64.9891 69.0235 67.731 67.1484C68.5125 66.6131 69.3434 66.1107 69.918 65.362C70.4927 64.6133 70.7488 63.5198 70.2464 62.7153C69.9374 62.286 69.5282 61.9388 69.0544 61.7038C67.1605 60.5947 65.1423 59.7129 63.0417 59.0769C61.4327 58.5908 58.185 58.7255 53.7913 53.6357C49.1186 48.224 45.4736 41.4463 45.756 34.3008C45.8677 31.5063 46.6984 28.5476 48.8723 26.7842C51.0461 25.0208 54.7831 25.0898 56.2575 27.4673C56.6466 28.1572 56.9132 28.9094 57.0456 29.6903C58.1241 34.6986 57.7828 39.9085 56.0605 44.7333C54.1132 50.1516 50.5076 54.8211 48.1794 60.0949C45.8512 65.3685 45.0368 71.9525 48.4881 76.563" stroke="#E2BF88" stroke-width="2.62702" stroke-linecap="round" stroke-linejoin="round"/>
<path d="M93.309 86.7637C95.3777 81.3684 99.9028 69.1396 88.8168 56.612C85.2703 52.6058 80.4793 49.3877 75.1333 49.1612C70.0665 48.9543 65.1375 51.3317 61.4104 54.7698C57.6834 58.2079 55.0136 62.6345 52.7313 67.1627C51.8841 68.8375 51.0633 70.6501 51.2767 72.512C51.4278 73.8256 52.0713 75.0044 52.7806 76.1242C56.314 81.6343 61.591 85.7654 66.8352 89.6829C70.2734 92.2509 74.0037 94.8778 78.289 95.1275C79.5336 95.1996 80.8405 95.0486 81.9011 94.3788C82.9619 93.7089 83.6842 92.4347 83.4314 91.2132C83.224 90.4636 82.8098 89.7876 82.2361 89.2626C78.9195 85.8475 73.7935 84.7999 69.0419 85.0791C64.2903 85.3582 59.6832 86.7669 54.9841 87.5353C53.999 87.6929 52.9514 87.8079 52.1206 87.289C51.1027 86.6323 50.807 85.3187 50.5772 84.1432C49.4601 78.7184 47.3059 73.5604 44.233 68.9525C42.8735 66.9198 41.2776 64.8871 40.9492 62.4604C40.4172 58.6315 47.0471 39.602 60.3235 36.4431C63.7747 35.6221 71.8167 35.3036 76.7916 36.489C82.443 37.8321 88.2093 42.1305 90.1238 45.6836C95.9327 56.4413 83.7894 61.8103 81.1524 61.8891C78.011 61.983 74.8831 61.439 71.9579 60.2898C68.7004 59.0058 65.7844 57.006 62.737 55.282C57.777 52.4775 52.4465 50.3859 46.9027 49.0692C44.0326 48.3894 32.2012 44.4883 28.4413 58.1488C25.7617 67.872 33.0649 78.2094 34.825 79.9826C39.6324 84.823 47.277 77.6643 48.0586 76.8696C49.6742 75.2278 49.4509 72.4037 48.1603 70.4958C46.8698 68.588 45.3954 65.7967 43.3726 64.6967C36.0597 60.6839 32.4705 67.2744 32.0764 68.2365C30.6532 71.688 29.8634 75.3677 29.745 79.0993C29.676 82.383 30.9402 95.5182 48.1341 91.2263C50.0002 90.7055 51.814 90.0129 53.5523 89.1576C55.5817 88.2282 57.6341 87.2825 59.3679 85.8737C60.6388 84.8492 61.7125 83.5981 62.9801 82.5899C64.2789 81.63 65.6796 80.8161 67.157 80.1633C73.4323 77.1652 90.7772 68.5781 90.8658 82.1171C90.8987 87.0624 87.3654 91.5514 83.392 94.497C78.1379 98.3882 70.9629 99.3143 64.7106 97.4063C58.4583 95.4985 53.178 90.9603 49.8449 85.3319C49.267 84.3468 48.7285 83.3222 47.8746 82.567C47.0209 81.8117 45.7665 81.3881 44.7321 81.8609C44.3804 82.0451 44.0691 82.2977 43.8164 82.604C43.5638 82.9102 43.3749 83.2638 43.261 83.644C42.1642 86.8031 44.7321 90.031 47.4051 92.044C50.3901 94.2901 54.1499 96.0699 57.7819 95.1866C61.4728 94.2868 64.0013 90.9176 67.3377 89.1115C69.8431 87.7488 72.7657 87.2792 75.2187 85.8278C77.9442 84.2351 79.8784 81.5917 81.5925 78.9319C83.1392 76.538 84.6102 73.9897 84.9814 71.1657C85.4017 67.9706 84.607 64.6802 83.287 61.7413C80.7584 56.1162 76.345 54.7698 73.4356 54.3725C69.3822 53.814 65.2784 53.7192 61.2035 54.09C56.9018 54.4809 52.2388 55.6433 49.7103 59.1536C46.3969 63.7707 48.4527 70.6469 52.7544 74.3772C55.9578 77.1441 60.1183 78.5446 64.3429 78.2784C66.4336 78.1236 68.4686 77.5316 70.3161 76.5406C72.1635 75.5494 73.7824 74.1815 75.0676 72.5252C75.9575 71.4271 76.5601 70.1248 76.8212 68.7357C77.0122 67.4719 76.7967 66.1801 76.2058 65.0467C75.6148 63.9134 74.679 62.9972 73.5334 62.4305C72.3877 61.8637 71.0917 61.6757 69.8322 61.8936C68.5728 62.1114 67.4152 62.7239 66.5265 63.6426C65.213 64.9955 64.6219 66.8607 64.0505 68.6503C63.4791 70.44 62.8453 72.3019 61.4957 73.6088C60.1461 74.9157 57.8475 75.4477 56.3797 74.2656C54.7739 72.975 55.03 69.4319 55.0661 67.3696C55.1384 62.6016 49.07 60.5164 47.2607 65.0316C45.4841 69.4614 43.1986 74.4955 45.4973 78.6789C47.4904 82.3109 51.9432 83.6605 55.9561 84.6883" stroke="#E2BF88" stroke-width="2.62702" stroke-linecap="round" stroke-linejoin="round"/>
<path d="M104.887 67.3144C100.68 68.6542 96.1616 70.0038 91.9353 68.733C87.5942 67.4195 84.4418 63.5216 82.8032 59.2987C81.6702 56.3761 81.2795 52.6852 83.46 50.4326C85.0099 48.8235 87.4005 48.4261 89.6466 48.3473C91.9452 48.2619 94.4671 48.5246 96.0401 50.1863C97.682 51.9332 97.7312 54.708 96.9628 56.9902C96.4539 58.5421 95.5956 59.9565 94.4541 61.1245C92.4838 63.1177 89.7451 64.1357 87.1279 65.157C83.0528 66.743 78.9973 68.4867 75.3983 70.9693C71.7992 73.4518 68.6436 76.7421 66.9228 80.7648C66.4764 81.7292 66.2061 82.7657 66.1249 83.8252C66.0676 85.1458 66.4589 86.447 67.2351 87.5169C68.0113 88.5869 69.1266 89.3626 70.3998 89.7181C71.6729 90.0737 73.0288 89.9879 74.2471 89.4748C75.4652 88.9617 76.474 88.0516 77.1091 86.8923C78.751 83.8877 77.4769 80.0949 75.5395 77.2708C73.602 74.4468 71.0111 72.0168 69.6878 68.8611C69.2871 67.9022 68.9851 66.8514 68.233 66.1322C67.0509 65.0027 65.0938 65.0979 63.6522 65.8629C61.6622 66.9204 60.3685 69.0252 59.889 71.2221C59.4096 73.4189 59.6164 75.7176 60.0269 77.9308C60.4067 80.2315 61.133 82.4614 62.1811 84.5444C63.685 87.375 66.0034 89.7262 67.3235 92.6455C68.6436 95.5647 68.6107 99.5414 66.01 101.403C65.0412 102.096 63.8525 102.388 62.6769 102.576C59.1304 103.108 55.2458 102.513 52.5268 100.172C50.5565 98.4708 49.3677 96.0015 48.7471 93.4697C47.8573 89.8576 48.0642 85.8808 49.8505 82.6135C50.8848 80.7187 52.4414 79.0473 52.9307 76.9425C53.2854 75.4089 53.0358 73.767 53.5021 72.2631C54.3 69.7083 56.9631 68.1977 59.5508 67.518C62.1384 66.8382 64.8869 66.7266 67.3629 65.7086C69.7765 64.7235 71.7862 62.9272 74.1767 61.8896C76.1897 61.0161 78.3964 60.7042 80.5801 60.5038C83.6767 60.2181 86.8685 60.146 89.8206 61.1245C94.7463 62.7664 98.5686 67.7183 98.3091 72.9133C98.1811 75.4615 97.1664 77.8717 96.1123 80.1934C93.4163 86.1403 89.9552 92.3433 84.005 95.0262C78.9185 97.3249 73.0109 96.5729 67.5631 95.3546C64.9821 94.7799 62.3092 94.0411 60.3389 92.2744C59.5118 91.4735 58.7731 90.5861 58.1354 89.6277C54.103 84.0036 50.2621 78.2461 46.6127 72.355C44.8854 69.567 43.1549 66.1486 44.5209 63.1605C45.5915 60.8322 48.2415 59.6566 50.7601 59.2462C54.0997 58.7077 58.0993 59.5155 59.6756 62.507C60.4702 64.0109 60.5129 65.8269 61.3174 67.3243C62.122 68.8217 64.3746 69.8068 65.478 68.513C65.8206 68.0479 66.0264 67.4962 66.0724 66.9204C66.3751 65.1369 66.1726 63.3045 65.4878 61.6302C64.4272 59.2101 62.2237 57.4763 60.9628 55.1579C60.2546 53.8284 59.8709 52.3502 59.8429 50.8442C59.815 49.3382 60.1436 47.8468 60.8019 46.492C61.9971 44.0915 64.5027 42.1804 67.1757 42.3939C70.4858 42.6599 72.8632 46.1735 72.7581 49.4934C72.6531 52.8133 70.6171 55.7982 68.1609 58.0311C67.4614 58.6683 66.7029 59.279 66.2399 60.1032C65.7768 60.9274 65.6685 62.0406 66.2726 62.7696C66.6365 63.1499 67.0873 63.4361 67.5862 63.6038C69.6145 64.4446 71.7352 65.042 73.9042 65.3835C75.5624 65.643 78.7609 65.0551 83.8113 69.5047C89.1803 74.2267 93.7217 80.4397 94.4179 87.5654C94.6905 90.3501 94.2701 93.3974 92.3623 95.4465C90.4544 97.4956 86.7405 97.9323 84.9541 95.7749C84.474 95.1438 84.1052 94.4352 83.8639 93.6799C82.1177 88.8643 81.7481 83.6573 82.7966 78.6434C83.9853 73.0085 86.9145 67.8891 88.4874 62.3493C90.0604 56.8096 89.9749 50.1698 85.926 46.0749" stroke="#FFEDB3" stroke-width="2.62702" stroke-linecap="round" stroke-linejoin="round"/>
<path d="M83.9659 20.4677C78.5412 18.4778 66.2335 14.1366 53.8866 25.4099C49.9461 29.022 46.7805 33.8525 46.6393 39.2017C46.5079 44.2685 48.9576 49.1614 52.4515 52.8392C55.9456 56.5171 60.4016 59.1145 64.9726 61.3409C66.6605 62.1585 68.4862 62.9533 70.3449 62.7102C71.6583 62.5427 72.8241 61.8795 73.9176 61.157C79.372 57.5449 83.4241 52.2022 87.2628 46.8988C89.7815 43.4246 92.3494 39.6549 92.5366 35.3663C92.5924 34.1217 92.4184 32.8181 91.7354 31.7738C91.0524 30.7296 89.765 30.0235 88.5468 30.2928C87.8009 30.5116 87.1317 30.9362 86.6159 31.5177C83.2501 34.8835 82.278 40.0259 82.6262 44.7743C82.9743 49.5226 84.4552 54.1068 85.2959 58.7927C85.4667 59.7581 85.5979 60.8188 85.089 61.6594C84.465 62.6873 83.1418 62.9894 81.9694 63.2488C76.5577 64.4429 71.4283 66.673 66.864 69.8163C64.851 71.2054 62.8414 72.8177 60.4213 73.1888C56.599 73.7799 37.4743 67.4323 34.1182 54.202C33.2448 50.7639 32.8047 42.7252 33.9147 37.7371C35.1756 32.0661 39.3887 26.2439 42.9056 24.2737C53.5746 18.3071 59.1242 30.3651 59.2424 33.0019C59.3842 36.1396 58.887 39.2733 57.7811 42.2129C56.5464 45.4967 54.5926 48.4521 52.9112 51.5093C50.1809 56.506 48.17 61.8633 46.9381 67.4225C46.301 70.3024 42.574 82.1995 56.287 85.7493C66.0529 88.2811 76.2786 80.8236 78.0289 79.0372C82.797 74.1575 75.5234 66.6212 74.7155 65.8528C73.0507 64.2602 70.2299 64.5394 68.3417 65.8528C66.4536 67.1663 63.6821 68.6868 62.6148 70.726C58.7499 78.1046 65.3765 81.5952 66.3551 81.9762C69.828 83.3447 73.5184 84.0787 77.2506 84.1435C80.5344 84.1664 93.6695 82.7019 89.1018 65.5803C88.5534 63.7228 87.8345 61.92 86.9542 60.1949C85.992 58.1819 85.0167 56.1427 83.5883 54.4286C82.544 53.1741 81.2897 52.1299 80.2553 50.8525C79.2763 49.5689 78.4416 48.1813 77.7662 46.715C74.6761 40.4758 65.8296 23.2688 79.3687 22.9766C84.2944 22.8715 88.8522 26.3359 91.847 30.2633C95.8204 35.4582 96.8515 42.6202 95.0356 48.902C93.2197 55.1838 88.7438 60.5397 83.168 63.9515C82.1992 64.5459 81.1747 65.1009 80.4326 65.9612C79.6905 66.8215 79.2866 68.0858 79.7758 69.1136C79.9648 69.4625 80.2217 69.7701 80.5313 70.0182C80.8409 70.2663 81.197 70.45 81.5786 70.5585C84.7574 71.606 87.9459 68.9922 89.9161 66.2896C92.1196 63.2717 93.8403 59.4856 92.9044 55.8669C91.9522 52.189 88.5567 49.7098 86.6882 46.4031C85.2893 43.9172 84.7737 41.0045 83.2994 38.5646C81.6575 35.8621 78.9943 33.9674 76.3181 32.296C73.9045 30.7821 71.3333 29.3406 68.5027 29.0121C65.3272 28.6411 62.0435 29.4883 59.1209 30.851C53.5385 33.4781 52.2513 37.8947 51.8967 40.7943C51.4009 44.856 51.3678 48.9607 51.798 53.0297C52.2512 57.3249 53.4859 61.9714 57.0324 64.4375C61.6986 67.6851 68.5585 65.5245 72.21 61.1537C74.9254 57.9119 76.2633 53.7356 75.9371 49.5193C75.7514 47.431 75.1294 45.4049 74.1112 43.5722C73.093 41.7394 71.7014 40.1408 70.0263 38.8799C68.9153 38.0064 67.6036 37.4239 66.2106 37.1854C64.9443 37.0143 63.6565 37.25 62.5329 37.8586C61.4094 38.4673 60.5084 39.4174 59.9603 40.5716C59.412 41.7257 59.2449 43.0244 59.483 44.2798C59.7211 45.5352 60.3521 46.6823 61.285 47.5557C62.6543 48.8395 64.5293 49.4109 66.3287 49.9527C68.1283 50.4946 69.9968 51.1054 71.3235 52.4353C72.6501 53.7652 73.2149 56.0475 72.0623 57.5383C70.7947 59.1802 67.2482 58.9635 65.1893 58.9635C60.4213 58.9635 58.4248 65.0615 62.9662 66.8052C67.4222 68.5126 72.4891 70.7227 76.6399 68.3617C80.252 66.3158 81.5261 61.8433 82.4916 57.8174" stroke="#FFEDB3" stroke-width="2.62702" stroke-linecap="round" stroke-linejoin="round"/>
<path d="M42.9979 95.1326C48.774 95.2738 61.8139 95.438 69.9019 80.7956C72.4895 76.1129 73.9212 70.5207 72.3352 65.4079C70.8344 60.5643 66.9432 56.719 62.4576 54.358C57.9719 51.9969 52.9017 50.9691 47.871 50.332C46.0091 50.0956 44.0257 49.9314 42.3411 50.7556C41.1656 51.3336 40.2625 52.3385 39.458 53.3827C35.4518 58.5579 33.3271 64.912 31.393 71.1676C30.1254 75.269 28.9007 79.6627 30.1025 83.7839C30.4505 84.9824 31.0285 86.1613 32.0137 86.9265C32.9988 87.6916 34.4403 87.9542 35.5076 87.3074C36.1459 86.8623 36.6447 86.2451 36.9459 85.5276C39.0507 81.2586 38.3217 76.0802 36.4665 71.693C34.6111 67.3058 31.741 63.4409 29.4425 59.2738C28.9696 58.4134 28.5033 57.4513 28.7167 56.4924C28.9761 55.3201 30.1321 54.6075 31.1598 53.9836C35.8973 51.1149 40.0353 47.3571 43.3459 42.9173C44.8105 40.947 46.1963 38.783 48.3669 37.6632C51.7984 35.8801 71.9476 35.752 79.3755 47.1862C81.3064 50.1645 84.3012 57.6385 84.8497 62.7184C85.4768 68.4946 83.3588 75.3675 80.6562 78.359C72.4664 87.4354 63.3441 77.7943 62.382 75.338C61.2434 72.4105 60.7094 69.2829 60.8123 66.1434C60.9273 62.643 61.8369 59.2245 62.4543 55.7766C63.4358 50.1639 63.6204 44.4407 63.0026 38.7764C62.6743 35.8473 62.3919 23.3886 48.2617 24.423C38.2003 25.1587 30.9103 35.5025 29.8267 37.7552C26.8713 43.9089 36.184 48.7099 37.1955 49.1827C39.284 50.1679 41.8715 48.9955 43.2343 47.1402C44.597 45.2849 46.7381 42.96 47.0961 40.6876C48.3899 32.4585 40.9914 31.2795 39.9407 31.2336C36.2124 31.0489 32.4814 31.5384 28.9269 32.6784C25.8007 33.7161 13.8445 39.3084 23.6728 54.0624C24.7888 55.6452 26.0486 57.1215 27.436 58.4725C28.9925 60.0718 30.5721 61.6906 32.4734 62.8564C33.8657 63.7069 35.4025 64.3012 36.7784 65.1714C38.1179 66.0736 39.3544 67.1196 40.4661 68.291C45.3918 73.2003 59.2952 86.6802 46.5673 91.2774C41.9208 92.9653 36.5059 91.1395 32.4011 88.3845C26.973 84.7395 23.6958 78.2869 23.4003 71.7554C23.1048 65.224 25.6234 58.7123 29.8102 53.6946C30.5392 52.8244 31.3273 51.9673 31.7542 50.9166C32.1811 49.8658 32.1614 48.5359 31.37 47.7182C31.0793 47.4474 30.7369 47.238 30.3634 47.1027C29.9899 46.9672 29.5929 46.9086 29.1962 46.9301C25.85 46.9563 23.6728 50.4535 22.6713 53.6487C21.5516 57.2149 21.1378 61.3524 23.1869 64.4852C25.2687 67.6605 29.2815 68.9183 32.1122 71.4533C34.2334 73.3546 35.6553 75.9521 37.8358 77.7877C40.2526 79.8237 43.3886 80.7595 46.4623 81.4852C49.2338 82.1419 52.1268 82.6739 54.9147 82.0763C58.0671 81.4196 60.8978 79.551 63.2227 77.3214C67.6787 73.0525 67.4653 68.4552 66.871 65.5852C66.0359 61.5791 64.7469 57.6813 63.0289 53.9671C61.2195 50.0463 58.5597 46.0401 54.4123 44.8416C48.9514 43.2654 43.1424 47.5113 41.0867 52.8113C39.552 56.7552 39.6262 61.1438 41.2936 65.0335C42.1392 66.9523 43.3787 68.672 44.9315 70.0811C46.4843 71.4903 48.3159 72.5575 50.3076 73.2134C51.6399 73.6853 53.069 73.8162 54.4649 73.5943C55.7199 73.351 56.8652 72.715 57.7349 71.7779C58.6047 70.8409 59.1538 69.6514 59.3029 68.3817C59.4521 67.1119 59.1936 65.8277 58.5647 64.7146C57.9358 63.6015 56.9692 62.7173 55.8046 62.1898C54.0937 61.4115 52.1366 61.4739 50.2583 61.533C48.3799 61.5921 46.413 61.6216 44.7284 60.7876C43.0438 59.9535 41.773 57.9636 42.3903 56.1903C43.0669 54.243 46.4918 53.294 48.4457 52.634C52.9608 51.1037 52.8952 44.6872 48.0319 44.4935C43.2639 44.3063 37.7537 43.8368 34.5684 47.4062C31.8166 50.5028 32.0334 55.1493 32.4109 59.2738" stroke="#FFEDB3" stroke-width="2.62702" stroke-linecap="round" stroke-linejoin="round"/>
<path d="M87.4861 55.3423C88.8608 55.3423 89.9751 54.3145 89.9751 53.0468C89.9751 51.7792 88.8608 50.7515 87.4861 50.7515C86.1114 50.7515 84.997 51.7792 84.997 53.0468C84.997 54.3145 86.1114 55.3423 87.4861 55.3423Z" fill="#ED5E3B"/>
<path d="M48.5734 96.5595C49.9481 96.5595 51.0626 95.5318 51.0626 94.2641C51.0626 92.9965 49.9481 91.9688 48.5734 91.9688C47.1988 91.9688 46.0844 92.9965 46.0844 94.2641C46.0844 95.5318 47.1988 96.5595 48.5734 96.5595Z" fill="#ED5E3B"/>
<path d="M90.3764 87.374C91.7511 87.374 92.8654 86.3464 92.8654 85.0787C92.8654 83.811 91.7511 82.7833 90.3764 82.7833C89.0017 82.7833 87.8873 83.811 87.8873 85.0787C87.8873 86.3464 89.0017 87.374 90.3764 87.374Z" fill="#ED5E3B"/>
<path d="M21.5317 63.2561C22.9064 63.2561 24.0208 62.2284 24.0208 60.9608C24.0208 59.693 22.9064 58.6654 21.5317 58.6654C20.157 58.6654 19.0426 59.693 19.0426 60.9608C19.0426 62.2284 20.157 63.2561 21.5317 63.2561Z" fill="#ED5E3B"/>
<path d="M47.9136 51.7116C49.2883 51.7116 50.4028 50.6839 50.4028 49.4162C50.4028 48.1485 49.2883 47.1208 47.9136 47.1208C46.5389 47.1208 45.4246 48.1485 45.4246 49.4162C45.4246 50.6839 46.5389 51.7116 47.9136 51.7116Z" fill="#ED5E3B"/>
<path d="M92.1897 39C93.5644 39 94.6787 37.9724 94.6787 36.7047C94.6787 35.4371 93.5644 34.4093 92.1897 34.4093C90.815 34.4093 89.7005 35.4371 89.7005 36.7047C89.7005 37.9724 90.815 39 92.1897 39Z" fill="#ED5E3B"/>
<path d="M43.14 27.5015C44.5147 27.5015 45.6292 26.4738 45.6292 25.2062C45.6292 23.9385 44.5147 22.9108 43.14 22.9108C41.7653 22.9108 40.6509 23.9385 40.6509 25.2062C40.6509 26.4738 41.7653 27.5015 43.14 27.5015Z" fill="#ED5E3B"/>
<path d="M67.1576 69.4466C68.5323 69.4466 69.6467 68.4189 69.6467 67.1512C69.6467 65.8835 68.5323 64.8558 67.1576 64.8558C65.783 64.8558 64.6686 65.8835 64.6686 67.1512C64.6686 68.4189 65.783 69.4466 67.1576 69.4466Z" fill="#ED5E3B"/>
<path d="M71.1219 101.86C71.7486 101.601 71.7665 100.206 71.1618 98.7451C70.5571 97.2838 69.5588 96.3094 68.9321 96.5688C68.3053 96.8281 68.2875 98.2229 68.8921 99.6842C69.4968 101.145 70.4951 102.12 71.1219 101.86Z" fill="#FFC501"/>
<path d="M27.6646 44.1379C28.2914 43.8785 28.3093 42.4837 27.7046 41.0224C27.0999 39.5612 26.1016 38.5868 25.4749 38.8461C24.8481 39.1055 24.8302 40.5003 25.4349 41.9616C26.0397 43.4229 27.0379 44.3972 27.6646 44.1379Z" fill="#FFC501"/>
<path d="M98.2242 48.488C98.851 48.2286 98.8688 46.8338 98.2642 45.3725C97.6595 43.9113 96.6613 42.9369 96.0346 43.1962C95.4078 43.4556 95.3899 44.8504 95.9946 46.3117C96.5993 47.773 97.5975 48.7473 98.2242 48.488Z" fill="#FFC501"/>
<path d="M26.8308 75.5525C28.2005 74.7617 29.0358 73.6446 28.6967 73.0571C28.3574 72.4697 26.9723 72.6346 25.6027 73.4253C24.2332 74.216 23.3978 75.3332 23.737 75.9206C24.0761 76.508 25.4613 76.3432 26.8308 75.5525Z" fill="#FFC501"/>
<path d="M63.0936 54.6093C64.4632 53.8185 65.2985 52.7013 64.9594 52.1139C64.6203 51.5265 63.2351 51.6914 61.8654 52.482C60.4959 53.2727 59.6606 54.39 59.9997 54.9773C60.3389 55.5648 61.7241 55.4 63.0936 54.6093Z" fill="#FFC501"/>
<path d="M88.8534 75.5273C90.2229 74.7366 91.0582 73.6194 90.7191 73.032C90.38 72.4446 88.9948 72.6094 87.6253 73.4002C86.2557 74.1908 85.4204 75.308 85.7595 75.8954C86.0986 76.4829 87.4838 76.3181 88.8534 75.5273Z" fill="#FFC501"/>
<path d="M62.7416 19.8683C62.8588 19.2003 61.6913 18.437 60.1337 18.1635C58.5761 17.8899 57.2183 18.2098 57.1009 18.8778C56.9837 19.5459 58.1513 20.3092 59.7089 20.5828C61.2665 20.8562 62.6242 20.5364 62.7416 19.8683Z" fill="#FFC501"/>
</svg>
