<svg width="22" height="25" viewBox="0 0 22 25" fill="none" xmlns="http://www.w3.org/2000/svg">
<path d="M19.2076 11.022C19.2084 11.7914 19.0862 12.556 18.8458 13.2868C18.2981 15.3133 17.093 17.1006 15.4197 18.3681H15.4177L9.71027 23.1498L3.47651 17.9325C1.80066 16.241 0.398711 13.949 0.270248 11.2855C0.153697 8.88885 0.952772 6.53755 2.5055 4.7082C4.05823 2.87885 6.24844 1.70833 8.63217 1.43389C11.0159 1.15946 13.4148 1.80165 15.3426 3.23029C17.2704 4.65892 18.5829 6.76713 19.014 9.12755C19.0242 9.1829 19.0192 9.24007 18.9997 9.29283C19.1382 9.8588 19.2081 10.4394 19.2077 11.0221L19.2076 11.022Z" fill="#02C27F"/>
<path d="M9.76536 12.9847C11.8204 12.9847 13.4861 11.319 13.4861 9.26397C13.4861 7.20908 11.8204 5.54321 9.76536 5.54321C7.71047 5.54321 6.0446 7.20895 6.0446 9.26397C6.0446 11.3189 7.71034 12.9847 9.76536 12.9847Z" fill="white"/>
</svg>
