<svg width="130" height="129" viewBox="0 0 130 129" fill="none" xmlns="http://www.w3.org/2000/svg">
<g clip-path="url(#clip0_205_599)">
<path d="M65 127.665C100.545 127.665 129.361 99.2274 129.361 64.1484C129.361 29.0694 100.545 0.632324 65 0.632324C29.4546 0.632324 0.639339 29.0694 0.639339 64.1484C0.639339 99.2274 29.4546 127.665 65 127.665Z" fill="#08664B" stroke="#FFEDB3" stroke-width="1.26036" stroke-miterlimit="10"/>
<path d="M65 108.512C89.8268 108.512 109.953 88.6499 109.953 64.1485C109.953 39.647 89.8268 19.7847 65 19.7847C40.1732 19.7847 20.0472 39.647 20.0472 64.1485C20.0472 88.6499 40.1732 108.512 65 108.512Z" fill="#0C513F"/>
<path d="M80.1763 65.855C66.0871 65.855 54.6616 77.1289 54.6616 91.0362C54.6616 104.943 66.0871 116.217 80.1763 116.217C94.2655 116.217 105.695 104.943 105.695 91.0362C105.695 77.1289 94.2698 65.855 80.1763 65.855V65.855ZM81.6446 96.9872C77.9025 96.9872 74.8707 93.9944 74.8707 90.2999C74.8707 86.6054 77.9025 83.6126 81.6446 83.6126C85.3867 83.6126 88.4228 86.6098 88.4228 90.2999C88.4228 93.99 85.3867 96.9872 81.6446 96.9872V96.9872Z" fill="#FF884D"/>
<path d="M84.1176 78.2117C84.2564 78.2117 84.3688 78.1554 84.3688 78.086C84.3688 78.0167 84.2564 77.9604 84.1176 77.9604C83.9789 77.9604 83.8664 78.0167 83.8664 78.086C83.8664 78.1554 83.9789 78.2117 84.1176 78.2117Z" fill="white"/>
<path d="M82.03 81.7329C82.1688 81.7329 82.2812 81.6767 82.2812 81.6073C82.2812 81.5379 82.1688 81.4817 82.03 81.4817C81.8913 81.4817 81.7788 81.5379 81.7788 81.6073C81.7788 81.6767 81.8913 81.7329 82.03 81.7329Z" fill="white"/>
<path d="M71.8822 82.1357C72.0209 82.1357 72.1334 82.0795 72.1334 82.0101C72.1334 81.9408 72.0209 81.8845 71.8822 81.8845C71.7434 81.8845 71.631 81.9408 71.631 82.0101C71.631 82.0795 71.7434 82.1357 71.8822 82.1357Z" fill="white"/>
<path d="M60.3873 85.7739C60.5261 85.7739 60.6386 85.7177 60.6386 85.6483C60.6386 85.5789 60.5261 85.5227 60.3873 85.5227C60.2486 85.5227 60.1361 85.5789 60.1361 85.6483C60.1361 85.7177 60.2486 85.7739 60.3873 85.7739Z" fill="white"/>
<path d="M75.6373 78.4761C75.776 78.4761 75.8885 78.4198 75.8885 78.3505C75.8885 78.2811 75.776 78.2249 75.6373 78.2249C75.4985 78.2249 75.3861 78.2811 75.3861 78.3505C75.3861 78.4198 75.4985 78.4761 75.6373 78.4761Z" fill="white"/>
<path d="M77.9934 73.3825C78.1321 73.3825 78.2446 73.3263 78.2446 73.2569C78.2446 73.1876 78.1321 73.1313 77.9934 73.1313C77.8547 73.1313 77.7422 73.1876 77.7422 73.2569C77.7422 73.3263 77.8547 73.3825 77.9934 73.3825Z" fill="white"/>
<path d="M83.3424 69.0774C83.4811 69.0774 83.5936 69.0211 83.5936 68.9518C83.5936 68.8824 83.4811 68.8262 83.3424 68.8262C83.2036 68.8262 83.0912 68.8824 83.0912 68.9518C83.0912 69.0211 83.2036 69.0774 83.3424 69.0774Z" fill="white"/>
<path d="M85.9714 74.8723C86.1101 74.8723 86.2226 74.787 86.2226 74.6818C86.2226 74.5765 86.1101 74.4912 85.9714 74.4912C85.8326 74.4912 85.7202 74.5765 85.7202 74.6818C85.7202 74.787 85.8326 74.8723 85.9714 74.8723Z" fill="white"/>
<path d="M91.6971 72.0181C91.8359 72.0181 91.9483 71.9328 91.9483 71.8275C91.9483 71.7223 91.8359 71.637 91.6971 71.637C91.5584 71.637 91.4459 71.7223 91.4459 71.8275C91.4459 71.9328 91.5584 72.0181 91.6971 72.0181Z" fill="white"/>
<path d="M89.0378 78.3504C89.1765 78.3504 89.289 78.2651 89.289 78.1598C89.289 78.0546 89.1765 77.9692 89.0378 77.9692C88.8991 77.9692 88.7866 78.0546 88.7866 78.1598C88.7866 78.2651 88.8991 78.3504 89.0378 78.3504Z" fill="white"/>
<path d="M97.8257 78.9307C97.9644 78.9307 98.0769 78.8454 98.0769 78.7401C98.0769 78.6349 97.9644 78.5496 97.8257 78.5496C97.6869 78.5496 97.5745 78.6349 97.5745 78.7401C97.5745 78.8454 97.6869 78.9307 97.8257 78.9307Z" fill="white"/>
<path d="M71.0376 75.8643C71.1763 75.8643 71.2888 75.779 71.2888 75.6737C71.2888 75.5685 71.1763 75.4832 71.0376 75.4832C70.8989 75.4832 70.7864 75.5685 70.7864 75.6737C70.7864 75.779 70.8989 75.8643 71.0376 75.8643Z" fill="white"/>
<path d="M73.8225 69.3501C73.9613 69.3501 74.0737 69.2648 74.0737 69.1596C74.0737 69.0543 73.9613 68.969 73.8225 68.969C73.6838 68.969 73.5713 69.0543 73.5713 69.1596C73.5713 69.2648 73.6838 69.3501 73.8225 69.3501Z" fill="white"/>
<path d="M66.4899 80.6199C66.6287 80.6199 66.7411 80.5346 66.7411 80.4293C66.7411 80.3241 66.6287 80.2388 66.4899 80.2388C66.3512 80.2388 66.2387 80.3241 66.2387 80.4293C66.2387 80.5346 66.3512 80.6199 66.4899 80.6199Z" fill="white"/>
<path d="M63.2546 77.4234C63.3933 77.4234 63.5058 77.3381 63.5058 77.2328C63.5058 77.1276 63.3933 77.0422 63.2546 77.0422C63.1158 77.0422 63.0033 77.1276 63.0033 77.2328C63.0033 77.3381 63.1158 77.4234 63.2546 77.4234Z" fill="white"/>
<path d="M81.7658 74.4868C81.9046 74.4868 82.017 74.4015 82.017 74.2963C82.017 74.191 81.9046 74.1057 81.7658 74.1057C81.6271 74.1057 81.5146 74.191 81.5146 74.2963C81.5146 74.4015 81.6271 74.4868 81.7658 74.4868Z" fill="white"/>
<path d="M72.7787 91.3784C72.9175 91.3784 73.0299 91.2931 73.0299 91.1879C73.0299 91.0826 72.9175 90.9973 72.7787 90.9973C72.64 90.9973 72.5275 91.0826 72.5275 91.1879C72.5275 91.2931 72.64 91.3784 72.7787 91.3784Z" fill="white"/>
<path d="M75.8971 98.2347C76.0359 98.2347 76.1483 98.1493 76.1483 98.0441C76.1483 97.9388 76.0359 97.8535 75.8971 97.8535C75.7584 97.8535 75.6459 97.9388 75.6459 98.0441C75.6459 98.1493 75.7584 98.2347 75.8971 98.2347Z" fill="white"/>
<path d="M69.6387 100.058C69.7774 100.058 69.8899 99.9726 69.8899 99.8673C69.8899 99.7621 69.7774 99.6768 69.6387 99.6768C69.4999 99.6768 69.3874 99.7621 69.3874 99.8673C69.3874 99.9726 69.4999 100.058 69.6387 100.058Z" fill="white"/>
<path d="M78.158 105.831C78.2967 105.831 78.4092 105.746 78.4092 105.641C78.4092 105.536 78.2967 105.45 78.158 105.45C78.0193 105.45 77.9068 105.536 77.9068 105.641C77.9068 105.746 78.0193 105.831 78.158 105.831Z" fill="white"/>
<path d="M77.7335 111.535C77.8723 111.535 77.9847 111.45 77.9847 111.345C77.9847 111.24 77.8723 111.154 77.7335 111.154C77.5948 111.154 77.4823 111.24 77.4823 111.345C77.4823 111.45 77.5948 111.535 77.7335 111.535Z" fill="white"/>
<path d="M72.0814 106.035C72.2201 106.035 72.3326 105.95 72.3326 105.844C72.3326 105.739 72.2201 105.654 72.0814 105.654C71.9427 105.654 71.8302 105.739 71.8302 105.844C71.8302 105.95 71.9427 106.035 72.0814 106.035Z" fill="white"/>
<path d="M72.3846 86.1031C72.5233 86.1031 72.6358 86.0177 72.6358 85.9125C72.6358 85.8072 72.5233 85.7219 72.3846 85.7219C72.2459 85.7219 72.1334 85.8072 72.1334 85.9125C72.1334 86.0177 72.2459 86.1031 72.3846 86.1031Z" fill="white"/>
<path d="M67.8196 92.6951C67.9583 92.6951 68.0708 92.6098 68.0708 92.5045C68.0708 92.3993 67.9583 92.314 67.8196 92.314C67.6808 92.314 67.5684 92.3993 67.5684 92.5045C67.5684 92.6098 67.6808 92.6951 67.8196 92.6951Z" fill="white"/>
<path d="M64.6102 96.0559C64.7489 96.0559 64.8614 95.9706 64.8614 95.8654C64.8614 95.7601 64.7489 95.6748 64.6102 95.6748C64.4715 95.6748 64.359 95.7601 64.359 95.8654C64.359 95.9706 64.4715 96.0559 64.6102 96.0559Z" fill="white"/>
<path d="M66.1911 88.6282C66.3298 88.6282 66.4423 88.5429 66.4423 88.4376C66.4423 88.3324 66.3298 88.2471 66.1911 88.2471C66.0523 88.2471 65.9399 88.3324 65.9399 88.4376C65.9399 88.5429 66.0523 88.6282 66.1911 88.6282Z" fill="white"/>
<path d="M71.8562 94.9732C71.9949 94.9732 72.1074 94.8879 72.1074 94.7826C72.1074 94.6774 71.9949 94.592 71.8562 94.592C71.7174 94.592 71.605 94.6774 71.605 94.7826C71.605 94.8879 71.7174 94.9732 71.8562 94.9732Z" fill="white"/>
<path d="M61.691 101.695C61.8298 101.695 61.9422 101.61 61.9422 101.505C61.9422 101.399 61.8298 101.314 61.691 101.314C61.5523 101.314 61.4398 101.399 61.4398 101.505C61.4398 101.61 61.5523 101.695 61.691 101.695Z" fill="white"/>
<path d="M58.1698 93.2754C58.3085 93.2754 58.421 93.1901 58.421 93.0849C58.421 92.9796 58.3085 92.8943 58.1698 92.8943C58.0311 92.8943 57.9186 92.9796 57.9186 93.0849C57.9186 93.1901 58.0311 93.2754 58.1698 93.2754Z" fill="white"/>
<path d="M65.9962 84.0762C66.1349 84.0762 66.2474 83.9909 66.2474 83.8856C66.2474 83.7804 66.1349 83.6951 65.9962 83.6951C65.8574 83.6951 65.745 83.7804 65.745 83.8856C65.745 83.9909 65.8574 84.0762 65.9962 84.0762Z" fill="white"/>
<path d="M66.6372 72.408C66.7759 72.408 66.8884 72.3227 66.8884 72.2174C66.8884 72.1122 66.7759 72.0269 66.6372 72.0269C66.4984 72.0269 66.386 72.1122 66.386 72.2174C66.386 72.3227 66.4984 72.408 66.6372 72.408Z" fill="white"/>
<path d="M86.9935 81.4602C87.2016 81.4602 87.3703 81.3477 87.3703 81.209C87.3703 81.0702 87.2016 80.9578 86.9935 80.9578C86.7854 80.9578 86.6167 81.0702 86.6167 81.209C86.6167 81.3477 86.7854 81.4602 86.9935 81.4602Z" fill="white"/>
<path d="M75.6329 83.6863C75.841 83.6863 76.0097 83.5738 76.0097 83.435C76.0097 83.2963 75.841 83.1838 75.6329 83.1838C75.4248 83.1838 75.2561 83.2963 75.2561 83.435C75.2561 83.5738 75.4248 83.6863 75.6329 83.6863Z" fill="white"/>
<path d="M80.4492 100.261C80.6573 100.261 80.826 100.149 80.826 100.01C80.826 99.8715 80.6573 99.759 80.4492 99.759C80.2411 99.759 80.0724 99.8715 80.0724 100.01C80.0724 100.149 80.2411 100.261 80.4492 100.261Z" fill="white"/>
<path d="M83.1041 104.264C83.3123 104.264 83.481 104.151 83.481 104.012C83.481 103.874 83.3123 103.761 83.1041 103.761C82.896 103.761 82.7273 103.874 82.7273 104.012C82.7273 104.151 82.896 104.264 83.1041 104.264Z" fill="white"/>
<path d="M87.3833 110.548C87.5914 110.548 87.7601 110.436 87.7601 110.297C87.7601 110.158 87.5914 110.046 87.3833 110.046C87.1752 110.046 87.0065 110.158 87.0065 110.297C87.0065 110.436 87.1752 110.548 87.3833 110.548Z" fill="white"/>
<path d="M95.2097 109.257C95.4178 109.257 95.5865 109.145 95.5865 109.006C95.5865 108.867 95.4178 108.755 95.2097 108.755C95.0016 108.755 94.8329 108.867 94.8329 109.006C94.8329 109.145 95.0016 109.257 95.2097 109.257Z" fill="white"/>
<path d="M92.4984 83.0539C92.7065 83.0539 92.8752 82.9415 92.8752 82.8027C92.8752 82.664 92.7065 82.5515 92.4984 82.5515C92.2903 82.5515 92.1216 82.664 92.1216 82.8027C92.1216 82.9415 92.2903 83.0539 92.4984 83.0539Z" fill="white"/>
<path d="M93.984 79.3508C94.1921 79.3508 94.3608 79.2383 94.3608 79.0996C94.3608 78.9609 94.1921 78.8484 93.984 78.8484C93.7758 78.8484 93.6071 78.9609 93.6071 79.0996C93.6071 79.2383 93.7758 79.3508 93.984 79.3508Z" fill="white"/>
<path d="M98.9951 91.7724C99.2032 91.7724 99.3719 91.66 99.3719 91.5212C99.3719 91.3825 99.2032 91.27 98.9951 91.27C98.787 91.27 98.6183 91.3825 98.6183 91.5212C98.6183 91.66 98.787 91.7724 98.9951 91.7724Z" fill="white"/>
<path d="M95.0797 93.2148C95.2878 93.2148 95.4565 93.1023 95.4565 92.9636C95.4565 92.8249 95.2878 92.7124 95.0797 92.7124C94.8716 92.7124 94.7029 92.8249 94.7029 92.9636C94.7029 93.1023 94.8716 93.2148 95.0797 93.2148Z" fill="white"/>
<path d="M89.8304 86.809C90.0385 86.809 90.2072 86.6966 90.2072 86.5578C90.2072 86.4191 90.0385 86.3066 89.8304 86.3066C89.6223 86.3066 89.4536 86.4191 89.4536 86.5578C89.4536 86.6966 89.6223 86.809 89.8304 86.809Z" fill="white"/>
<path d="M87.5176 99.7287C87.7257 99.7287 87.8944 99.6163 87.8944 99.4775C87.8944 99.3388 87.7257 99.2263 87.5176 99.2263C87.3095 99.2263 87.1408 99.3388 87.1408 99.4775C87.1408 99.6163 87.3095 99.7287 87.5176 99.7287Z" fill="white"/>
<path d="M91.1687 103.648C91.3768 103.648 91.5455 103.536 91.5455 103.397C91.5455 103.258 91.3768 103.146 91.1687 103.146C90.9606 103.146 90.7919 103.258 90.7919 103.397C90.7919 103.536 90.9606 103.648 91.1687 103.648Z" fill="white"/>
<path d="M89.93 96.2595C90.1381 96.2595 90.3068 96.147 90.3068 96.0083C90.3068 95.8695 90.1381 95.7571 89.93 95.7571C89.7219 95.7571 89.5532 95.8695 89.5532 96.0083C89.5532 96.147 89.7219 96.2595 89.93 96.2595Z" fill="white"/>
<path d="M92.0783 92.0237C92.2864 92.0237 92.4551 91.9112 92.4551 91.7724C92.4551 91.6337 92.2864 91.5212 92.0783 91.5212C91.8701 91.5212 91.7014 91.6337 91.7014 91.7724C91.7014 91.9112 91.8701 92.0237 92.0783 92.0237Z" fill="white"/>
<path d="M97.817 96.853C98.0251 96.853 98.1938 96.7405 98.1938 96.6018C98.1938 96.463 98.0251 96.3506 97.817 96.3506C97.6089 96.3506 97.4402 96.463 97.4402 96.6018C97.4402 96.7405 97.6089 96.853 97.817 96.853Z" fill="white"/>
<path d="M98.6009 102.739C98.809 102.739 98.9777 102.627 98.9777 102.488C98.9777 102.349 98.809 102.237 98.6009 102.237C98.3928 102.237 98.2241 102.349 98.2241 102.488C98.2241 102.627 98.3928 102.739 98.6009 102.739Z" fill="white"/>
<path d="M104.21 93.8689C104.418 93.8689 104.587 93.7564 104.587 93.6177C104.587 93.4789 104.418 93.3665 104.21 93.3665C104.002 93.3665 103.833 93.4789 103.833 93.6177C103.833 93.7564 104.002 93.8689 104.21 93.8689Z" fill="white"/>
<path d="M100.429 82.1313C100.637 82.1313 100.805 82.0189 100.805 81.8801C100.805 81.7414 100.637 81.6289 100.429 81.6289C100.221 81.6289 100.052 81.7414 100.052 81.8801C100.052 82.0189 100.221 82.1313 100.429 82.1313Z" fill="white"/>
<path d="M96.6346 86.9477C96.8427 86.9477 97.0114 86.8353 97.0114 86.6965C97.0114 86.5578 96.8427 86.4453 96.6346 86.4453C96.4265 86.4453 96.2578 86.5578 96.2578 86.6965C96.2578 86.8353 96.4265 86.9477 96.6346 86.9477Z" fill="white"/>
<path d="M50.9281 59.3279C49.5508 59.6527 48.1302 59.003 47.4676 57.7557C47.4676 57.7557 42.5647 54.2128 39.429 47.6425C36.9516 42.4538 35.8471 35.9051 35.8471 35.9051C35.3317 34.9306 35.6392 33.7265 36.5618 33.1245C36.5618 33.1245 46.4757 24.7654 50.1485 22.4612C56.7622 18.312 63.038 14.6436 65.9052 12.9847C67.0919 12.3004 68.5082 12.1575 69.8032 12.5906C72.3976 13.4568 76.7071 15.6527 79.9208 21.1186C84.2779 28.5248 87.6345 36.6197 88.6697 39.2184C88.8905 39.7685 88.7866 40.3878 88.4011 40.8383C86.8722 42.614 82.1556 47.2397 71.1762 52.2032C61.6954 56.491 54.445 58.505 50.9195 59.3279H50.9281Z" fill="#FFEDB3"/>
<path d="M50.495 40.6995C50.8491 40.6995 51.1361 40.4125 51.1361 40.0585C51.1361 39.7045 50.8491 39.4175 50.495 39.4175C50.141 39.4175 49.854 39.7045 49.854 40.0585C49.854 40.4125 50.141 40.6995 50.495 40.6995Z" fill="#FFC501"/>
<path d="M48.7642 37.6275C49.1129 37.566 49.3446 37.2278 49.2819 36.8721C49.2192 36.5164 48.8857 36.2779 48.5371 36.3394C48.1884 36.4008 47.9567 36.739 48.0194 37.0948C48.0821 37.4505 48.4156 37.689 48.7642 37.6275Z" fill="#FFC501"/>
<path d="M46.8536 35.0406C47.2022 34.9791 47.434 34.6409 47.3713 34.2852C47.3086 33.9295 46.9751 33.691 46.6264 33.7525C46.2778 33.8139 46.046 34.1521 46.1087 34.5078C46.1715 34.8635 46.5049 35.1021 46.8536 35.0406Z" fill="#FFC501"/>
<path d="M65.013 31.721C65.367 31.721 65.654 31.434 65.654 31.08C65.654 30.726 65.367 30.439 65.013 30.439C64.659 30.439 64.372 30.726 64.372 31.08C64.372 31.434 64.659 31.721 65.013 31.721Z" fill="#FFC501"/>
<path d="M63.2784 28.6517C63.627 28.5902 63.8588 28.252 63.7961 27.8963C63.7334 27.5406 63.3999 27.3021 63.0512 27.3635C62.7026 27.425 62.4708 27.7632 62.5335 28.1189C62.5963 28.4746 62.9297 28.7131 63.2784 28.6517Z" fill="#FFC501"/>
<path d="M61.3677 26.0604C61.7164 25.9989 61.9482 25.6607 61.8854 25.305C61.8227 24.9493 61.4892 24.7108 61.1406 24.7722C60.792 24.8337 60.5602 25.1719 60.6229 25.5276C60.6856 25.8833 61.0191 26.1218 61.3677 26.0604Z" fill="#FFC501"/>
<path d="M58.9071 24.0494C59.2558 23.9879 59.4876 23.6497 59.4248 23.294C59.3621 22.9383 59.0286 22.6998 58.68 22.7612C58.3314 22.8227 58.0996 23.1609 58.1623 23.5166C58.225 23.8723 58.5585 24.1109 58.9071 24.0494Z" fill="#FFC501"/>
<path d="M45.178 32.9251C45.5267 32.8636 45.7585 32.5254 45.6957 32.1697C45.633 31.814 45.2995 31.5755 44.9509 31.637C44.6023 31.6985 44.3705 32.0366 44.4332 32.3924C44.4959 32.7481 44.8294 32.9866 45.178 32.9251Z" fill="#FFC501"/>
<g style="mix-blend-mode:multiply">
<path d="M37.3457 36.2083C37.3457 36.2083 45.0378 44.0086 47.918 56.7638C47.918 56.7638 37.9218 48.4221 37.2201 36.3858" fill="#FFEDB3"/>
</g>
<g style="mix-blend-mode:multiply">
<path d="M79.1628 64.9324C79.1628 64.9324 77.5386 65.8592 77.569 67.4747C77.8072 80.3339 87.7861 90.2955 100.39 90.2955C103.447 90.2955 105.942 88.9139 108.606 87.8224L79.1628 64.9367V64.9324Z" fill="#FF884D"/>
</g>
<path d="M103.525 38.7854C89.4363 38.7854 78.0107 50.0593 78.0107 63.9666C78.0107 77.8739 89.4363 89.1435 103.525 89.1435C117.615 89.1435 129.044 77.8739 129.044 63.9666C129.044 50.0593 117.619 38.7854 103.525 38.7854ZM104.998 69.9176C101.256 69.9176 98.2198 66.9248 98.2198 63.2303C98.2198 59.5359 101.256 56.5431 104.998 56.5431C108.74 56.5431 111.772 59.5359 111.772 63.2303C111.772 66.9248 108.74 69.9176 104.998 69.9176V69.9176Z" fill="#FF884D"/>
<path d="M91.3939 48.3008L93.4989 49.8123" stroke="#FFC501" stroke-width="0.944187" stroke-linecap="round" stroke-linejoin="round"/>
<path d="M54.9085 61.71L57.0134 63.2259" stroke="#FFC501" stroke-width="0.944187" stroke-linecap="round" stroke-linejoin="round"/>
<path d="M55.6318 66.1797L57.7367 67.6912" stroke="#FFC501" stroke-width="0.944187" stroke-linecap="round" stroke-linejoin="round"/>
<path d="M98.6573 50.7046L99.3286 53.208" stroke="#FFC501" stroke-width="0.944187" stroke-linecap="round" stroke-linejoin="round"/>
<path d="M98.9085 43.3071L100.992 44.8533" stroke="#FFC501" stroke-width="0.944187" stroke-linecap="round" stroke-linejoin="round"/>
<path d="M96.1712 57.76L97.0591 60.1984" stroke="#FFFCF5" stroke-width="0.944187" stroke-linecap="round" stroke-linejoin="round"/>
<path d="M88.9425 31.1191L89.8304 33.5532" stroke="#FFFCF5" stroke-width="0.944187" stroke-linecap="round" stroke-linejoin="round"/>
<path d="M81.2028 68.6787L83.351 70.134" stroke="#FFC501" stroke-width="0.944187" stroke-linecap="round" stroke-linejoin="round"/>
<path d="M103.144 74.123V76.7174" stroke="#FFFCF5" stroke-width="0.944187" stroke-linecap="round" stroke-linejoin="round"/>
<path d="M95.4132 81.6072V84.1972" stroke="#FFC501" stroke-width="0.944187" stroke-linecap="round" stroke-linejoin="round"/>
<path d="M106.7 82.7507L108.883 84.1497" stroke="#FFC501" stroke-width="0.944187" stroke-linecap="round" stroke-linejoin="round"/>
<path d="M94.1139 69.519L96.3054 70.9093" stroke="#FFFCF5" stroke-width="0.944187" stroke-linecap="round" stroke-linejoin="round"/>
<path d="M90.3805 30.2227L92.572 31.613" stroke="#FFFCF5" stroke-width="0.944187" stroke-linecap="round" stroke-linejoin="round"/>
<path d="M90.8266 75.8728L88.3578 76.6567" stroke="#FFFCF5" stroke-width="0.944187" stroke-linecap="round" stroke-linejoin="round"/>
<path d="M90.06 59.1416L88.4791 61.1946" stroke="#FFFCF5" stroke-width="0.944187" stroke-linecap="round" stroke-linejoin="round"/>
<path d="M54.6919 64.0532L53.111 66.1062" stroke="#FFFCF5" stroke-width="0.944187" stroke-linecap="round" stroke-linejoin="round"/>
<path d="M84.9882 53.1819L83.8145 55.4904" stroke="#FFC501" stroke-width="0.944187" stroke-linecap="round" stroke-linejoin="round"/>
<path d="M106.912 46.7805L105.548 48.9851" stroke="#FFC501" stroke-width="0.944187" stroke-linecap="round" stroke-linejoin="round"/>
<path d="M116.064 60.7268L114.124 62.4463" stroke="#FFFCF5" stroke-width="0.944187" stroke-linecap="round" stroke-linejoin="round"/>
<path d="M123.86 68.3149V70.9093" stroke="#FFC501" stroke-width="0.944187" stroke-linecap="round" stroke-linejoin="round"/>
<path d="M122.327 60.2808L124.267 62.0002" stroke="#FFC501" stroke-width="0.944187" stroke-linecap="round" stroke-linejoin="round"/>
<path d="M91.7621 36.4291L92.585 33.969" stroke="#FFC501" stroke-width="0.944187" stroke-linecap="round" stroke-linejoin="round"/>
<path d="M113.73 67.6523L114.284 70.1861" stroke="#FFFCF5" stroke-width="0.944187" stroke-linecap="round" stroke-linejoin="round"/>
<path d="M111.283 76.2192L113.851 76.5961" stroke="#FFC501" stroke-width="0.944187" stroke-linecap="round" stroke-linejoin="round"/>
<path d="M120.824 76.9644V79.5587" stroke="#FFC501" stroke-width="0.944187" stroke-linecap="round" stroke-linejoin="round"/>
<path d="M111.928 46.0747L114.518 46.0098" stroke="#FFC501" stroke-width="0.944187" stroke-linecap="round" stroke-linejoin="round"/>
<path d="M110.178 55.5469L107.683 54.8496" stroke="#FFC501" stroke-width="0.944187" stroke-linecap="round" stroke-linejoin="round"/>
<path d="M117.251 52.0645V54.6588" stroke="#FFC501" stroke-width="0.944187" stroke-linecap="round" stroke-linejoin="round"/>
<g style="mix-blend-mode:multiply">
<path d="M57.2126 102.158L62.3234 99.798C63.8089 99.1093 64.1121 97.13 62.9037 96.0299L61.4788 94.7349L55.4715 98.2647L57.2126 102.163V102.158Z" fill="#FF884D"/>
</g>
<path d="M34.5781 44.2165L34.4179 40.7905C34.3312 38.9238 31.62 37.304 29.9438 38.1312C21.4678 42.3151 3.06911 56.6035 13.3859 80.3685C26.6911 111.011 51.5778 103.393 60.8248 99.2046C62.6092 98.3946 62.96 96.0125 61.4745 94.7348L59.9889 93.4528C59.9889 93.4528 49.6938 72.1306 46.3371 65.6339C43.34 59.8215 34.5738 44.2165 34.5738 44.2165H34.5781Z" fill="#FFEDB3"/>
<path d="M28.3803 61.4502C28.5788 61.4502 28.7397 61.2892 28.7397 61.0907C28.7397 60.8921 28.5788 60.7312 28.3803 60.7312C28.1817 60.7312 28.0208 60.8921 28.0208 61.0907C28.0208 61.2892 28.1817 61.4502 28.3803 61.4502Z" fill="#FFC501"/>
<path d="M27.4101 64.4863C27.6086 64.4863 27.7696 64.3254 27.7696 64.1268C27.7696 63.9283 27.6086 63.7673 27.4101 63.7673C27.2115 63.7673 27.0506 63.9283 27.0506 64.1268C27.0506 64.3254 27.2115 64.4863 27.4101 64.4863Z" fill="#FFC501"/>
<path d="M26.5568 67.2712C26.7554 67.2712 26.9163 67.1103 26.9163 66.9117C26.9163 66.7132 26.7554 66.5522 26.5568 66.5522C26.3583 66.5522 26.1974 66.7132 26.1974 66.9117C26.1974 67.1103 26.3583 67.2712 26.5568 67.2712Z" fill="#FFC501"/>
<path d="M25.3398 70.6279C25.5383 70.6279 25.6993 70.467 25.6993 70.2684C25.6993 70.0699 25.5383 69.9089 25.3398 69.9089C25.1413 69.9089 24.9803 70.0699 24.9803 70.2684C24.9803 70.467 25.1413 70.6279 25.3398 70.6279Z" fill="#FFC501"/>
<path d="M36.0204 68.1245C36.2189 68.1245 36.3799 67.9635 36.3799 67.765C36.3799 67.5665 36.2189 67.4055 36.0204 67.4055C35.8218 67.4055 35.6609 67.5665 35.6609 67.765C35.6609 67.9635 35.8218 68.1245 36.0204 68.1245Z" fill="#FFC501"/>
<path d="M35.0459 71.1606C35.2444 71.1606 35.4054 70.9997 35.4054 70.8011C35.4054 70.6026 35.2444 70.4417 35.0459 70.4417C34.8473 70.4417 34.6864 70.6026 34.6864 70.8011C34.6864 70.9997 34.8473 71.1606 35.0459 71.1606Z" fill="#FFC501"/>
<path d="M34.197 73.9455C34.3955 73.9455 34.5565 73.7846 34.5565 73.586C34.5565 73.3875 34.3955 73.2266 34.197 73.2266C33.9984 73.2266 33.8375 73.3875 33.8375 73.586C33.8375 73.7846 33.9984 73.9455 34.197 73.9455Z" fill="#FFC501"/>
<path d="M32.9756 77.3022C33.1741 77.3022 33.3351 77.1413 33.3351 76.9427C33.3351 76.7442 33.1741 76.5833 32.9756 76.5833C32.7771 76.5833 32.6161 76.7442 32.6161 76.9427C32.6161 77.1413 32.7771 77.3022 32.9756 77.3022Z" fill="#FFC501"/>
<path d="M42.2659 75.2058C42.4644 75.2058 42.6254 75.0448 42.6254 74.8463C42.6254 74.6478 42.4644 74.4868 42.2659 74.4868C42.0673 74.4868 41.9064 74.6478 41.9064 74.8463C41.9064 75.0448 42.0673 75.2058 42.2659 75.2058Z" fill="#FFC501"/>
<path d="M41.2914 78.2419C41.4899 78.2419 41.6509 78.081 41.6509 77.8824C41.6509 77.6839 41.4899 77.5229 41.2914 77.5229C41.0928 77.5229 40.9319 77.6839 40.9319 77.8824C40.9319 78.081 41.0928 78.2419 41.2914 78.2419Z" fill="#FFC501"/>
<path d="M40.4425 81.0268C40.641 81.0268 40.8019 80.8659 40.8019 80.6673C40.8019 80.4688 40.641 80.3079 40.4425 80.3079C40.2439 80.3079 40.083 80.4688 40.083 80.6673C40.083 80.8659 40.2439 81.0268 40.4425 81.0268Z" fill="#FFC501"/>
<path d="M39.2211 84.3835C39.4196 84.3835 39.5806 84.2226 39.5806 84.024C39.5806 83.8255 39.4196 83.6646 39.2211 83.6646C39.0226 83.6646 38.8616 83.8255 38.8616 84.024C38.8616 84.2226 39.0226 84.3835 39.2211 84.3835Z" fill="#FFC501"/>
<path d="M14.4297 61.0211L11.6491 60.2458" stroke="#FFC60C" stroke-width="1.28635" stroke-linecap="round" stroke-linejoin="round"/>
<path d="M13.793 64.9322L10.9691 64.8542" stroke="#FFC60C" stroke-width="1.28635" stroke-linecap="round" stroke-linejoin="round"/>
<path d="M15.716 57.8204C15.716 57.8204 13.1996 56.9196 12.8012 56.6121Z" fill="#3CFF31"/>
<path d="M15.716 57.8204C15.716 57.8204 13.1996 56.9196 12.8012 56.6121" stroke="#FFC60C" stroke-width="1.28635" stroke-linecap="round" stroke-linejoin="round"/>
<path d="M17.4961 54.0783C17.4961 54.0783 14.9754 52.8656 14.7329 52.4758Z" fill="#3CFF31"/>
<path d="M17.4961 54.0783C17.4961 54.0783 14.9754 52.8656 14.7329 52.4758" stroke="#FFC60C" stroke-width="1.28635" stroke-linecap="round" stroke-linejoin="round"/>
<path d="M19.2459 50.6871C19.2459 50.6871 17.4831 49.6216 17.154 49.1755Z" fill="#3CFF31"/>
<path d="M19.2459 50.6871C19.2459 50.6871 17.4831 49.6216 17.154 49.1755" stroke="#FFC60C" stroke-width="1.28635" stroke-linecap="round" stroke-linejoin="round"/>
<path d="M22.5462 43.7139C22.5462 43.7139 23.5381 44.6754 24.2094 44.9396Z" fill="#3CFF31"/>
<path d="M22.5462 43.7139C22.5462 43.7139 23.5381 44.6754 24.2094 44.9396" stroke="#FFC60C" stroke-width="1.28635" stroke-linecap="round" stroke-linejoin="round"/>
<path d="M24.9457 41.804C24.9457 41.804 25.695 42.6442 26.297 43.112Z" fill="#3CFF31"/>
<path d="M24.9457 41.804C24.9457 41.804 25.695 42.6442 26.297 43.112" stroke="#FFC60C" stroke-width="1.28635" stroke-linecap="round" stroke-linejoin="round"/>
<path d="M27.7349 39.8853C27.7349 39.8853 27.9385 40.47 28.7397 41.5527Z" fill="#3CFF31"/>
<path d="M27.7349 39.8853C27.7349 39.8853 27.9385 40.47 28.7397 41.5527" stroke="#FFC60C" stroke-width="1.28635" stroke-linecap="round" stroke-linejoin="round"/>
<path d="M19.8003 46.2478C19.8003 46.2478 20.6449 47.2656 21.5544 47.7594Z" fill="#3CFF31"/>
<path d="M19.8003 46.2478C19.8003 46.2478 20.6449 47.2656 21.5544 47.7594" stroke="#FFC60C" stroke-width="1.28635" stroke-linecap="round" stroke-linejoin="round"/>
<path d="M10.8002 69.3976C10.8002 69.3976 13.1953 69.1464 14.0139 68.9385Z" fill="#3CFF31"/>
<path d="M10.8002 69.3976C10.8002 69.3976 13.1953 69.1464 14.0139 68.9385" stroke="#FFC60C" stroke-width="1.28635" stroke-linecap="round" stroke-linejoin="round"/>
<path d="M21.8316 87.6577L19.0034 89.7756" stroke="#FFC60C" stroke-width="1.28635" stroke-linecap="round" stroke-linejoin="round"/>
<path d="M11.3676 73.417C11.3676 73.417 13.4985 72.9016 14.7025 72.4512Z" fill="#3CFF31"/>
<path d="M11.3676 73.417C11.3676 73.417 13.4985 72.9016 14.7025 72.4512" stroke="#FFC60C" stroke-width="1.28635" stroke-linecap="round" stroke-linejoin="round"/>
<path d="M12.6409 77.2717C12.6409 77.2717 14.8238 76.3838 15.5644 76.02Z" fill="#3CFF31"/>
<path d="M12.6409 77.2717C12.6409 77.2717 14.8238 76.3838 15.5644 76.02" stroke="#FFC60C" stroke-width="1.28635" stroke-linecap="round" stroke-linejoin="round"/>
<path d="M13.8623 80.5329C13.8623 80.5329 15.833 79.6017 16.5346 79.3591Z" fill="#3CFF31"/>
<path d="M13.8623 80.5329C13.8623 80.5329 15.833 79.6017 16.5346 79.3591" stroke="#FFC60C" stroke-width="1.28635" stroke-linecap="round" stroke-linejoin="round"/>
<path d="M15.5558 83.9589L18.3883 82.469" stroke="#FFC60C" stroke-width="1.28635" stroke-linecap="round" stroke-linejoin="round"/>
<path d="M17.2839 87.0989L20.346 85.2148" stroke="#FFC60C" stroke-width="1.28635" stroke-linecap="round" stroke-linejoin="round"/>
<path d="M21.1776 92.3439C22.1867 91.9368 23.9582 90.0354 23.9582 90.0354Z" fill="#3CFF31"/>
<path d="M21.1776 92.3439C22.1867 91.9368 23.9582 90.0354 23.9582 90.0354" stroke="#FFC60C" stroke-width="1.28635" stroke-linecap="round" stroke-linejoin="round"/>
<path d="M23.9625 95.3195L26.1714 92.6472" stroke="#FFC60C" stroke-width="1.28635" stroke-linecap="round" stroke-linejoin="round"/>
<path d="M54.9128 100.907L54.5793 98.1348" stroke="#FFC60C" stroke-width="1.28635" stroke-linecap="round" stroke-linejoin="round"/>
<path d="M59.1486 99.3906L57.3685 97.238" stroke="#FFC60C" stroke-width="1.28635" stroke-linecap="round" stroke-linejoin="round"/>
<path d="M61.7733 97.1213L59.2872 95.8479" stroke="#FFC60C" stroke-width="1.28635" stroke-linecap="round" stroke-linejoin="round"/>
<path d="M51.0884 101.968L51.1101 99.4297" stroke="#FFC60C" stroke-width="1.28635" stroke-linecap="round" stroke-linejoin="round"/>
<path d="M47.5542 102.613L49.1091 99.8108" stroke="#FFC60C" stroke-width="1.28635" stroke-linecap="round" stroke-linejoin="round"/>
<path d="M44.1846 102.721L45.9733 99.6809" stroke="#FFC60C" stroke-width="1.28635" stroke-linecap="round" stroke-linejoin="round"/>
<path d="M40.6374 102.54L42.6037 99.5554" stroke="#FFC60C" stroke-width="1.28635" stroke-linecap="round" stroke-linejoin="round"/>
<path d="M37.2634 102.054L39.1171 99.4297" stroke="#FFC60C" stroke-width="1.28635" stroke-linecap="round" stroke-linejoin="round"/>
<path d="M34.8293 101.322L36.6744 98.3425" stroke="#FFC60C" stroke-width="1.28635" stroke-linecap="round" stroke-linejoin="round"/>
<path d="M32.3389 100.768L34.119 97.2554" stroke="#FFC60C" stroke-width="1.28635" stroke-linecap="round" stroke-linejoin="round"/>
<path d="M29.658 99.3343L31.5073 96.5884" stroke="#FFC60C" stroke-width="1.28635" stroke-linecap="round" stroke-linejoin="round"/>
<path d="M26.7388 97.5457L28.4669 94.6829" stroke="#FFC60C" stroke-width="1.28635" stroke-linecap="round" stroke-linejoin="round"/>
</g>
<defs>
<clipPath id="clip0_205_599">
<rect width="129.986" height="128.297" fill="white" transform="translate(0.00699234)"/>
</clipPath>
</defs>
</svg>
