<svg width="25" height="23" viewBox="0 0 25 23" fill="none" xmlns="http://www.w3.org/2000/svg">
<g clip-path="url(#clip0_205_563)">
<path d="M13.219 10.9839L3.46556 21.0895L3.467 21.0952C3.62427 21.6474 3.95832 22.1327 4.41792 22.4767C4.87752 22.8208 5.43728 23.0046 6.01137 22.9999C6.49869 22.9999 6.95581 22.8705 7.34825 22.6463L7.37987 22.6276L18.3581 16.4449L13.219 10.9824V10.9839Z" fill="#EA4335"/>
<path d="M23.0874 9.26332L23.0774 9.25757L18.3379 6.5752L12.9976 11.2126L18.3566 16.4422L23.0716 13.7871C23.8982 13.3516 24.4588 12.502 24.4588 11.5202C24.4588 10.547 23.9054 9.70032 23.0874 9.26332V9.26332Z" fill="#FBBC04"/>
<path d="M3.46412 1.91211C3.40662 2.12198 3.375 2.34336 3.375 2.57336V20.4271C3.375 20.6571 3.40519 20.8799 3.46412 21.0884L13.5554 11.2429L3.46269 1.91211H3.46412Z" fill="#4285F4"/>
<path d="M13.2909 11.5L18.3394 6.57369L7.37125 0.368001C6.95871 0.126688 6.48931 -0.000336894 6.01137 6.71052e-07C4.79237 6.71052e-07 3.76312 0.809313 3.46556 1.90756V1.91044L13.2894 11.5H13.2909Z" fill="#34A853"/>
</g>
<defs>
<clipPath id="clip0_205_563">
<rect width="24" height="23" fill="white" transform="translate(0.71875)"/>
</clipPath>
</defs>
</svg>
